<?xml version="1.0" encoding="utf-8"?>
<!-- Generator: Adobe Illustrator 26.1.0, SVG Export Plug-In . SVG Version: 6.00 Build 0)  -->
<svg version="1.1" id="Layer_1" xmlns="http://www.w3.org/2000/svg" xmlns:xlink="http://www.w3.org/1999/xlink" x="0px" y="0px"
	 viewBox="0 0 360 288" style="enable-background:new 0 0 360 288;" xml:space="preserve">
<style type="text/css">
	.st0{fill:#FFFFFF;}
</style>
<g>
	<path class="st0" d="M182.28,194.58c-0.86-0.01-1.68-0.02-2.52-0.06l0.06-1.25c0.8,0.04,1.61,0.06,2.41,0.06c0.02,0,0.03,0,0.04,0
		c0.87,0,1.74-0.02,2.61-0.07l0.07,1.25C184.06,194.56,183.17,194.58,182.28,194.58z M174.59,194c-1.71-0.26-3.42-0.62-5.08-1.06
		l0.32-1.21c1.63,0.43,3.3,0.78,4.96,1.03L174.59,194z M190.11,193.96l-0.2-1.24c1.66-0.26,3.32-0.62,4.95-1.06l0.32,1.21
		C193.52,193.32,191.82,193.69,190.11,193.96z M164.57,191.36c-1.61-0.61-3.21-1.32-4.75-2.09l0.57-1.12
		c1.5,0.76,3.06,1.44,4.63,2.04L164.57,191.36z M200.13,191.27l-0.45-1.17c1.57-0.61,3.13-1.3,4.62-2.07l0.57,1.11
		C203.34,189.93,201.75,190.64,200.13,191.27z M155.31,186.68c-1.45-0.94-2.87-1.96-4.21-3.04l0.79-0.97
		c1.31,1.06,2.69,2.05,4.1,2.96L155.31,186.68z M209.36,186.54l-0.69-1.05c1.41-0.92,2.78-1.93,4.09-2.99l0.79,0.97
		C212.22,184.57,210.81,185.6,209.36,186.54z M147.23,180.17l-0.1-0.1c-1.22-1.22-2.39-2.52-3.48-3.86l0.97-0.79
		c1.06,1.3,2.2,2.57,3.39,3.76l-0.34,0.55L147.23,180.17z M217.42,179.97l-0.92-0.85c1.16-1.26,2.26-2.57,3.28-3.87l0.99,0.77
		C219.73,177.35,218.6,178.68,217.42,179.97z M140.6,172.01c-0.94-1.44-1.81-2.96-2.59-4.5l1.11-0.57c0.76,1.5,1.61,2.98,2.53,4.38
		L140.6,172.01z M223.78,171.81l-1.05-0.68c0.93-1.42,1.79-2.89,2.57-4.37l1.11,0.58C225.62,168.85,224.73,170.36,223.78,171.81z
		 M135.89,162.77c-0.61-1.61-1.15-3.27-1.6-4.94l1.21-0.32c0.43,1.63,0.96,3.25,1.56,4.82L135.89,162.77z M228.6,162.63l-1.16-0.47
		c0.63-1.57,1.19-3.18,1.64-4.79l1.2,0.34C229.82,159.37,229.25,161.02,228.6,162.63z M133.22,152.75c-0.27-1.7-0.45-3.44-0.54-5.16
		l1.25-0.07c0.09,1.68,0.27,3.37,0.53,5.03L133.22,152.75z M231.43,152.65l-1.24-0.21c0.28-1.66,0.47-3.35,0.56-5.02l1.25,0.07
		C231.91,149.21,231.72,150.94,231.43,152.65z M133.93,142.46l-1.25-0.06c0.09-1.73,0.27-3.47,0.54-5.16l1.24,0.19
		C134.2,139.08,134.02,140.77,133.93,142.46z M230.75,142.37c-0.1-1.67-0.29-3.36-0.58-5.02l1.24-0.21c0.29,1.7,0.49,3.44,0.59,5.16
		L230.75,142.37z M135.5,132.47l-1.21-0.32c0.45-1.67,0.98-3.33,1.59-4.94l1.17,0.45C136.45,129.22,135.93,130.84,135.5,132.47z
		 M229.04,132.41c-0.46-1.6-1.02-3.21-1.65-4.78l1.16-0.47c0.65,1.61,1.22,3.26,1.7,4.91L229.04,132.41z M225.24,123.05
		c-0.79-1.48-1.66-2.94-2.6-4.34l1.04-0.7c0.96,1.44,1.86,2.93,2.67,4.45L225.24,123.05z M139.1,123.03l-1.11-0.57
		c0.78-1.53,1.65-3.05,2.59-4.5l1.05,0.68C140.71,120.05,139.86,121.53,139.1,123.03z M219.62,114.64c-1.07-1.3-2.22-2.56-3.41-3.75
		l0.88-0.89c1.22,1.22,2.39,2.51,3.49,3.84L219.62,114.64z M144.6,114.55l-0.97-0.79c1.08-1.33,2.25-2.63,3.47-3.86l0.89,0.89
		C146.8,111.98,145.66,113.25,144.6,114.55z M151.84,107.51l-0.77-0.99c1.37-1.08,2.78-2.09,4.2-3.03l0.69,1.05
		C154.56,105.46,153.18,106.45,151.84,107.51z M212.46,107.49c-1.3-1.07-2.67-2.08-4.07-3.01l0.69-1.04
		c1.44,0.95,2.84,1.99,4.17,3.09L212.46,107.49z M160.32,101.96l-0.59-1.11c1.54-0.82,3.12-1.55,4.7-2.2l0.47,1.16
		C163.36,100.45,161.82,101.17,160.32,101.96z M204.03,101.89c-1.49-0.79-3.04-1.51-4.59-2.13l0.47-1.16
		c1.59,0.64,3.18,1.38,4.71,2.19L204.03,101.89z M169.68,98.16l-0.35-1.2c1.67-0.48,3.37-0.87,5.06-1.16l0.21,1.23
		C172.97,97.31,171.31,97.69,169.68,98.16z M194.65,98.12c-1.63-0.46-3.29-0.83-4.93-1.11l0.21-1.24c1.69,0.29,3.4,0.67,5.07,1.14
		L194.65,98.12z M179.64,96.45l-0.07-1.25c0.89-0.05,1.82-0.1,2.65-0.08c0.85,0,1.7,0.02,2.55,0.07l-0.07,1.25
		c-0.84-0.05-1.67-0.11-2.52-0.07C181.33,96.38,180.49,96.4,179.64,96.45z"/>
</g>
<g>
	<path class="st0" d="M106.36,122.65l2.17-5.96c0.4-1.1,0.97-1.89,1.72-2.37c0.75-0.48,1.63-0.54,2.65-0.17
		c0.62,0.22,1.09,0.57,1.42,1.03c0.33,0.46,0.51,1.02,0.55,1.67l0.03,0.01c0.44-0.7,1-1.14,1.7-1.33c0.7-0.19,1.46-0.13,2.3,0.18
		c0.48,0.17,0.9,0.42,1.25,0.75c0.36,0.32,0.62,0.72,0.79,1.2c0.17,0.48,0.24,1.03,0.21,1.67c-0.03,0.64-0.19,1.35-0.48,2.14
		l-2.05,5.63L106.36,122.65z M112.27,122.37l1.28-3.5c0.19-0.52,0.2-1,0.03-1.45c-0.17-0.45-0.53-0.77-1.08-0.97
		c-0.62-0.23-1.11-0.23-1.47-0.01c-0.36,0.22-0.65,0.62-0.87,1.2l-1.27,3.51L112.27,122.37z M117.65,124.32l1.38-3.8
		c0.24-0.65,0.25-1.22,0.05-1.7c-0.21-0.48-0.62-0.84-1.24-1.06c-0.61-0.22-1.14-0.21-1.6,0.03c-0.46,0.24-0.81,0.69-1.04,1.34
		l-1.38,3.8L117.65,124.32z"/>
	<path class="st0" d="M114.75,111.39l0.92-1.73l1.61,0.86l0.02-0.03c-0.2-0.17-0.36-0.4-0.49-0.67c-0.13-0.27-0.23-0.56-0.29-0.88
		c-0.06-0.32-0.07-0.64-0.04-0.96c0.03-0.33,0.13-0.63,0.28-0.91c0.12-0.22,0.2-0.36,0.25-0.44c0.05-0.07,0.11-0.15,0.17-0.23
		l1.77,0.95c-0.09,0.12-0.18,0.24-0.27,0.37c-0.09,0.13-0.17,0.25-0.23,0.38c-0.17,0.31-0.26,0.64-0.28,0.98
		c-0.02,0.34,0.03,0.68,0.17,1.01c0.13,0.33,0.35,0.65,0.64,0.96c0.29,0.31,0.67,0.58,1.13,0.83l3.97,2.12l-0.98,1.84L114.75,111.39
		z"/>
	<path class="st0" d="M128.75,102.8c0.21,0.15,0.38,0.22,0.51,0.23c0.13,0.01,0.25-0.07,0.36-0.23c0.03-0.05,0.08-0.11,0.13-0.18
		c0.05-0.07,0.09-0.16,0.14-0.26l1.18,0.83c-0.02,0.07-0.05,0.17-0.09,0.28c-0.04,0.11-0.09,0.22-0.14,0.34
		c-0.05,0.11-0.11,0.22-0.16,0.33c-0.06,0.11-0.12,0.19-0.16,0.27c-0.24,0.35-0.52,0.59-0.82,0.72c-0.3,0.13-0.65,0.11-1.05-0.06
		c0.09,0.57,0.04,1.15-0.16,1.75c-0.2,0.6-0.46,1.13-0.78,1.59c-0.24,0.35-0.53,0.65-0.84,0.9c-0.32,0.25-0.66,0.44-1.01,0.55
		c-0.36,0.12-0.73,0.15-1.11,0.09c-0.38-0.05-0.77-0.21-1.15-0.48c-0.48-0.33-0.81-0.7-0.99-1.08c-0.18-0.38-0.25-0.78-0.22-1.18
		c0.03-0.4,0.13-0.81,0.3-1.21c0.17-0.41,0.37-0.8,0.58-1.19c0.16-0.35,0.32-0.67,0.49-0.97c0.17-0.3,0.3-0.57,0.39-0.83
		c0.09-0.26,0.12-0.49,0.08-0.7c-0.04-0.21-0.18-0.41-0.43-0.58c-0.22-0.15-0.44-0.23-0.65-0.22c-0.21,0.01-0.41,0.06-0.6,0.16
		s-0.35,0.24-0.51,0.41c-0.16,0.17-0.3,0.34-0.42,0.51c-0.33,0.48-0.51,0.94-0.53,1.39c-0.02,0.45,0.17,0.84,0.56,1.17l-1.2,1.71
		c-0.48-0.38-0.81-0.79-0.99-1.23c-0.18-0.44-0.26-0.89-0.23-1.36c0.03-0.46,0.14-0.93,0.35-1.4c0.21-0.46,0.46-0.91,0.76-1.34
		c0.26-0.38,0.57-0.73,0.91-1.04c0.34-0.31,0.7-0.55,1.09-0.72c0.39-0.17,0.79-0.24,1.19-0.22c0.41,0.02,0.82,0.17,1.23,0.46
		L128.75,102.8z M125.4,102.99c-0.01,0.38-0.13,0.77-0.36,1.17c-0.23,0.4-0.44,0.82-0.64,1.25c-0.09,0.2-0.17,0.41-0.24,0.61
		c-0.06,0.21-0.09,0.41-0.09,0.61c0,0.2,0.06,0.39,0.16,0.57c0.1,0.18,0.26,0.35,0.48,0.51c0.19,0.13,0.39,0.19,0.6,0.17
		c0.21-0.02,0.4-0.08,0.58-0.18c0.18-0.1,0.35-0.23,0.51-0.4c0.16-0.16,0.29-0.32,0.4-0.47c0.13-0.19,0.25-0.41,0.36-0.67
		c0.1-0.25,0.16-0.52,0.18-0.8c0.02-0.28-0.02-0.55-0.12-0.81c-0.09-0.26-0.28-0.48-0.55-0.67L125.4,102.99z"/>
	<path class="st0" d="M124.75,96.1l1.36-1.43l1.01,0.96l0.05,0c-0.16-0.59-0.17-1.17-0.04-1.75s0.42-1.09,0.85-1.54
		c0.71-0.75,1.47-1.16,2.27-1.22c0.8-0.06,1.59,0.27,2.37,1.01l4.7,4.47l-1.44,1.51l-4.31-4.09c-0.56-0.5-1.06-0.75-1.5-0.77
		c-0.44-0.02-0.88,0.2-1.31,0.65c-0.24,0.26-0.41,0.53-0.51,0.82c-0.1,0.29-0.14,0.58-0.11,0.88s0.12,0.59,0.26,0.88
		c0.14,0.29,0.34,0.55,0.59,0.79l4.04,3.84l-1.44,1.51L124.75,96.1z"/>
	<path class="st0" d="M145.61,90.01l-1.57,1.2l-0.78-1.01l-0.03,0.02c0.11,0.61,0.03,1.17-0.25,1.68c-0.28,0.52-0.66,0.96-1.13,1.32
		c-0.59,0.45-1.18,0.74-1.78,0.87c-0.6,0.13-1.18,0.13-1.75-0.01s-1.11-0.39-1.63-0.77c-0.52-0.38-1-0.85-1.43-1.41
		c-0.52-0.68-0.88-1.33-1.07-1.97c-0.19-0.63-0.26-1.23-0.2-1.78c0.06-0.55,0.23-1.05,0.5-1.5c0.28-0.45,0.62-0.83,1.02-1.14
		c0.23-0.18,0.49-0.34,0.76-0.48c0.27-0.14,0.56-0.25,0.86-0.32s0.6-0.11,0.9-0.1c0.3,0.01,0.6,0.06,0.88,0.17l0.03-0.02L136,80.94
		l1.65-1.27L145.61,90.01z M137.02,90.78c0.24,0.32,0.53,0.6,0.85,0.85c0.32,0.24,0.66,0.42,1.01,0.54
		c0.36,0.11,0.72,0.14,1.09,0.08c0.37-0.06,0.74-0.22,1.1-0.5c0.37-0.28,0.62-0.6,0.77-0.96c0.15-0.36,0.21-0.73,0.18-1.11
		c-0.02-0.38-0.12-0.76-0.28-1.14c-0.16-0.38-0.37-0.73-0.62-1.06c-0.64-0.83-1.32-1.34-2.05-1.51c-0.73-0.18-1.41-0.02-2.05,0.47
		c-0.39,0.3-0.65,0.63-0.8,0.99c-0.14,0.36-0.2,0.74-0.17,1.12c0.03,0.39,0.13,0.77,0.31,1.15
		C136.54,90.09,136.76,90.45,137.02,90.78z"/>
	<path class="st0" d="M140.63,77.86l1.79-1.07l1.02,1.69l-1.79,1.07L140.63,77.86z M142.48,80.95l1.79-1.07l4.87,8.1l-1.79,1.07
		L142.48,80.95z"/>
	<path class="st0" d="M146.79,78.35l1.79-0.83l0.58,1.26l0.05,0.02c0.07-0.61,0.27-1.16,0.61-1.64c0.34-0.49,0.79-0.86,1.36-1.12
		c0.94-0.43,1.79-0.53,2.56-0.3c0.77,0.24,1.38,0.84,1.83,1.82l2.72,5.89l-1.89,0.87l-2.49-5.39c-0.33-0.66-0.7-1.09-1.11-1.27
		c-0.41-0.18-0.89-0.14-1.46,0.12c-0.32,0.15-0.58,0.34-0.78,0.57c-0.2,0.23-0.34,0.49-0.43,0.78c-0.08,0.29-0.11,0.59-0.08,0.91
		c0.03,0.32,0.12,0.64,0.26,0.95l2.34,5.06l-1.89,0.87L146.79,78.35z"/>
	<path class="st0" d="M168.14,79.97c0.39,1.37,0.3,2.5-0.28,3.4c-0.57,0.89-1.58,1.55-3.02,1.96c-0.46,0.13-0.93,0.22-1.42,0.25
		c-0.49,0.04-0.96,0-1.4-0.11c-0.45-0.12-0.85-0.32-1.21-0.61c-0.36-0.29-0.64-0.69-0.84-1.21l2-0.57c0.14,0.27,0.31,0.47,0.5,0.6
		c0.19,0.14,0.4,0.23,0.62,0.27c0.22,0.04,0.45,0.05,0.7,0.01c0.24-0.04,0.49-0.09,0.75-0.17c0.81-0.23,1.34-0.6,1.6-1.1
		c0.26-0.51,0.28-1.13,0.07-1.88l-0.4-1.39l-0.03,0.01c-0.14,0.58-0.41,1.09-0.82,1.51c-0.41,0.42-0.89,0.71-1.45,0.87
		c-0.73,0.21-1.38,0.26-1.96,0.15c-0.58-0.11-1.1-0.33-1.56-0.68c-0.46-0.34-0.85-0.78-1.16-1.31s-0.57-1.12-0.76-1.78
		c-0.17-0.61-0.24-1.22-0.22-1.82c0.03-0.6,0.16-1.16,0.4-1.68c0.23-0.52,0.57-0.97,1.01-1.36c0.44-0.39,0.98-0.68,1.63-0.86
		c0.57-0.16,1.14-0.19,1.69-0.09c0.55,0.1,1.03,0.38,1.43,0.82l0.03-0.01l-0.36-1.25l2-0.57L168.14,79.97z M163.38,80.14
		c0.45-0.13,0.8-0.33,1.06-0.6c0.26-0.27,0.44-0.58,0.55-0.94c0.11-0.35,0.15-0.73,0.13-1.14c-0.02-0.41-0.09-0.8-0.2-1.19
		c-0.11-0.39-0.26-0.75-0.46-1.08c-0.2-0.34-0.43-0.62-0.71-0.84c-0.27-0.23-0.59-0.38-0.95-0.45c-0.36-0.08-0.75-0.05-1.19,0.07
		c-0.45,0.13-0.79,0.33-1.04,0.6c-0.25,0.27-0.43,0.59-0.53,0.94c-0.1,0.35-0.14,0.73-0.11,1.14c0.03,0.4,0.09,0.79,0.2,1.17
		c0.11,0.38,0.26,0.73,0.45,1.06c0.19,0.33,0.43,0.61,0.7,0.84s0.58,0.38,0.93,0.47C162.57,80.27,162.96,80.26,163.38,80.14z"/>
	<path class="st0" d="M223.42,77.26l-4.39,10.96l0.03,0.02l9.34-7.31l1.25,0.92l-4.2,11.1l0.03,0.02l9.18-7.43l1,0.74l-10.64,8.37
		l-1.06-0.78l4.26-11.37l-0.03-0.02l-9.58,7.45l-1.09-0.8l4.83-12.66L223.42,77.26z"/>
	<path class="st0" d="M230.69,95.77c-0.25,0.39-0.41,0.8-0.49,1.23c-0.08,0.43-0.08,0.86,0.02,1.31c0.1,0.44,0.33,0.86,0.71,1.26
		c0.57,0.61,1.19,0.94,1.83,0.99c0.65,0.05,1.3-0.11,1.95-0.48l0.79,0.84c-0.95,0.55-1.86,0.79-2.73,0.72
		c-0.87-0.08-1.72-0.55-2.53-1.42c-0.51-0.54-0.85-1.1-1.03-1.68c-0.18-0.57-0.22-1.14-0.12-1.7c0.1-0.56,0.31-1.11,0.64-1.64
		c0.33-0.53,0.74-1.03,1.22-1.49c0.45-0.42,0.95-0.78,1.5-1.07c0.55-0.29,1.11-0.47,1.69-0.54c0.58-0.07,1.15-0.01,1.73,0.19
		s1.12,0.57,1.63,1.11c0.52,0.55,0.85,1.13,0.99,1.73c0.14,0.6,0.15,1.19,0.02,1.77c-0.13,0.58-0.38,1.14-0.75,1.69
		c-0.37,0.54-0.8,1.03-1.3,1.46l-4.96-5.3C231.21,95.05,230.94,95.38,230.69,95.77z M237.16,97.53c0.2-0.38,0.32-0.77,0.37-1.16
		c0.05-0.4,0.02-0.8-0.09-1.19c-0.11-0.4-0.33-0.76-0.64-1.1c-0.32-0.35-0.68-0.59-1.07-0.73c-0.39-0.14-0.78-0.19-1.18-0.17
		c-0.4,0.03-0.8,0.12-1.21,0.29c-0.4,0.17-0.78,0.38-1.12,0.63l4.17,4.46C236.71,98.25,236.96,97.91,237.16,97.53z"/>
	<path class="st0" d="M245.29,97.38l-4.44,3.1l0.02,0.03c0.35-0.09,0.69-0.12,1.03-0.08c0.34,0.04,0.66,0.13,0.98,0.27
		c0.31,0.14,0.6,0.32,0.87,0.56c0.27,0.23,0.5,0.49,0.69,0.77c0.41,0.59,0.66,1.18,0.74,1.77c0.08,0.59,0.04,1.16-0.13,1.71
		c-0.17,0.55-0.46,1.07-0.86,1.55s-0.87,0.92-1.42,1.3c-0.55,0.38-1.12,0.68-1.71,0.88c-0.59,0.21-1.18,0.29-1.75,0.27
		c-0.58-0.03-1.12-0.18-1.64-0.47c-0.52-0.28-0.98-0.72-1.39-1.31c-0.44-0.63-0.69-1.29-0.74-1.99s0.11-1.34,0.5-1.94l-0.02-0.03
		l-1.47,1.02l-0.61-0.87l10.71-7.47L245.29,97.38z M243.2,106.42c0.33-0.37,0.58-0.77,0.74-1.19c0.17-0.42,0.24-0.86,0.21-1.32
		c-0.03-0.46-0.2-0.91-0.51-1.36c-0.35-0.5-0.74-0.85-1.18-1.06c-0.43-0.21-0.88-0.31-1.34-0.31c-0.46,0-0.92,0.09-1.38,0.27
		c-0.46,0.18-0.89,0.41-1.29,0.69c-0.4,0.28-0.76,0.6-1.09,0.97c-0.33,0.37-0.57,0.77-0.73,1.2c-0.16,0.43-0.22,0.89-0.17,1.37
		s0.24,0.97,0.59,1.47c0.31,0.45,0.68,0.77,1.1,0.95c0.42,0.18,0.85,0.27,1.31,0.26c0.45-0.01,0.91-0.11,1.37-0.29
		c0.46-0.18,0.89-0.41,1.29-0.69C242.51,107.12,242.87,106.79,243.2,106.42z"/>
</g>
<g>
	<path class="st0" d="M128.81,183.44c0.34,0.46,0.58,0.92,0.73,1.39c0.15,0.47,0.19,0.93,0.14,1.39c-0.06,0.45-0.21,0.89-0.47,1.3
		c-0.26,0.41-0.61,0.78-1.07,1.12c-0.46,0.34-0.92,0.56-1.39,0.69c-0.47,0.12-0.93,0.14-1.38,0.06c-0.45-0.08-0.88-0.27-1.28-0.55
		c-0.4-0.28-0.77-0.65-1.11-1.11l-2.64-3.59l-4.37,3.21l-0.72-0.98l10.2-7.49L128.81,183.44z M123.65,186.89
		c0.5,0.68,1.08,1.11,1.73,1.28c0.66,0.17,1.33,0,2.04-0.52c0.7-0.52,1.07-1.11,1.1-1.79c0.03-0.67-0.2-1.35-0.7-2.04l-2.48-3.37
		l-4.17,3.06L123.65,186.89z"/>
	<path class="st0" d="M130.28,190.61l-1.56,1.47l0.02,0.03c0.74-0.3,1.46-0.37,2.17-0.21c0.7,0.16,1.33,0.56,1.88,1.19l-0.81,0.77
		c-0.34-0.39-0.71-0.68-1.11-0.87c-0.4-0.19-0.82-0.3-1.24-0.32c-0.42-0.02-0.84,0.05-1.25,0.21c-0.41,0.16-0.79,0.4-1.15,0.74
		l-3.54,3.35l-0.77-0.82l6.65-6.28L130.28,190.61z"/>
	<path class="st0" d="M134.42,194.72l-6.22,6.7l-0.83-0.77l6.22-6.7L134.42,194.72z M136.81,192.14l-1.22,1.31l-0.83-0.77l1.22-1.31
		L136.81,192.14z"/>
	<path class="st0" d="M136.99,197.01l-0.96,1.25l0.03,0.02c0.51-0.31,1.08-0.43,1.72-0.37c0.64,0.07,1.22,0.3,1.74,0.7
		c0.51,0.39,0.89,0.79,1.14,1.18c0.24,0.4,0.38,0.79,0.4,1.19c0.02,0.4-0.05,0.8-0.23,1.22c-0.18,0.41-0.44,0.83-0.77,1.26
		l-3.58,4.67l-0.89-0.69l3.47-4.53c0.24-0.31,0.43-0.62,0.58-0.93c0.15-0.31,0.23-0.62,0.24-0.92c0.01-0.31-0.06-0.61-0.22-0.91
		c-0.16-0.3-0.41-0.58-0.77-0.86c-0.36-0.28-0.72-0.46-1.1-0.54c-0.38-0.09-0.75-0.09-1.11-0.02c-0.36,0.07-0.72,0.22-1.06,0.44
		c-0.34,0.22-0.65,0.51-0.94,0.86l-3.25,4.23l-0.89-0.68l5.56-7.26L136.99,197.01z"/>
	<path class="st0" d="M147.16,204.01l-0.49,0.8l-1.61-0.98l-3.2,5.27c-0.19,0.31-0.3,0.58-0.32,0.81c-0.02,0.23,0.14,0.46,0.47,0.69
		c0.27,0.17,0.56,0.32,0.85,0.46l-0.49,0.8c-0.14-0.09-0.29-0.17-0.44-0.24c-0.15-0.08-0.3-0.16-0.44-0.24
		c-0.64-0.39-1.02-0.79-1.12-1.19c-0.11-0.4,0.05-0.94,0.47-1.59l3.25-5.35l-1.38-0.84l0.49-0.8l1.37,0.84l1.43-2.35l0.96,0.58
		l-1.43,2.35L147.16,204.01z"/>
	<path class="st0" d="M208.41,204.79l1.99-1.02l3.37,6.56c0.19,0.38,0.41,0.75,0.65,1.12c0.24,0.37,0.52,0.66,0.86,0.88
		c0.33,0.22,0.73,0.34,1.19,0.36c0.46,0.02,1.01-0.14,1.66-0.47c0.65-0.33,1.1-0.69,1.35-1.07c0.25-0.38,0.39-0.77,0.4-1.17
		c0.01-0.4-0.06-0.8-0.22-1.21c-0.16-0.41-0.34-0.8-0.53-1.18l-3.38-6.56l1.99-1.02l3.71,7.2c0.37,0.72,0.59,1.41,0.64,2.06
		c0.06,0.65-0.03,1.26-0.25,1.83s-0.57,1.1-1.05,1.57c-0.48,0.47-1.07,0.89-1.77,1.25c-0.7,0.36-1.38,0.6-2.04,0.71
		c-0.67,0.12-1.3,0.1-1.89-0.06c-0.6-0.15-1.14-0.44-1.64-0.86c-0.5-0.42-0.94-1-1.31-1.72L208.41,204.79z"/>
	<path class="st0" d="M218.73,199.4l2.12-1.62l5.02,1.79l-0.31-5.38l1.99-1.52l0.35,7.41l7.58,2.46l-2.16,1.65l-5.47-1.91l0.37,5.81
		l-2.03,1.55l-0.39-7.96L218.73,199.4z"/>
	<path class="st0" d="M230.6,188.95l1.38-1.38l5.74,13.01l-1.38,1.38L230.6,188.95z"/>
	<path class="st0" d="M232.7,187.09l1.44-1.71l9.67,8.17l-1.44,1.71L232.7,187.09z"/>
	<path class="st0" d="M235.76,183.65l1.2-1.88l6.21,3.97c0.36,0.23,0.73,0.45,1.12,0.65c0.39,0.2,0.79,0.31,1.19,0.33
		c0.4,0.02,0.8-0.07,1.21-0.29c0.41-0.22,0.8-0.63,1.2-1.24c0.39-0.61,0.6-1.15,0.63-1.6c0.03-0.46-0.06-0.86-0.24-1.22
		c-0.19-0.35-0.45-0.66-0.8-0.94c-0.35-0.27-0.7-0.52-1.06-0.75l-6.21-3.98l1.21-1.88l6.82,4.37c0.69,0.44,1.22,0.93,1.59,1.46
		c0.37,0.54,0.61,1.11,0.7,1.71c0.09,0.61,0.05,1.24-0.12,1.89c-0.18,0.65-0.48,1.31-0.9,1.97s-0.9,1.21-1.41,1.65
		c-0.52,0.43-1.07,0.73-1.66,0.9c-0.59,0.17-1.21,0.19-1.85,0.08c-0.64-0.11-1.31-0.39-1.99-0.83L235.76,183.65z"/>
</g>
<g>
	<path class="st0" d="M182.23,189.28c-11.86,0-22.99-4.6-31.35-12.96c-8.36-8.36-12.96-19.5-12.96-31.35
		c0-11.86,4.6-22.99,12.96-31.35c8.36-8.36,19.5-12.96,31.35-12.96c11.86,0,22.99,4.6,31.35,12.96c8.36,8.36,12.96,19.5,12.96,31.35
		c0,11.86-4.6,22.99-12.96,31.35C205.22,184.68,194.09,189.28,182.23,189.28z M182.23,101.91c-11.52,0-22.34,4.47-30.46,12.6
		c-8.12,8.12-12.6,18.94-12.6,30.46c0,11.52,4.47,22.34,12.6,30.47c8.12,8.12,18.94,12.59,30.46,12.59s22.34-4.47,30.46-12.59
		c8.12-8.12,12.6-18.94,12.6-30.46c0-11.52-4.47-22.34-12.6-30.47C204.57,106.38,193.75,101.91,182.23,101.91z"/>
</g>
<g>
	<path class="st0" d="M182.23,244.8c-25.58,0-51.15-9.74-70.62-29.21l0,0c-38.94-38.94-38.94-102.3,0-141.25
		c38.95-38.94,102.31-38.94,141.25,0c38.94,38.94,38.94,102.3,0,141.25C233.38,235.06,207.81,244.8,182.23,244.8z M112.49,214.71
		c38.46,38.45,101.02,38.45,139.48,0c38.45-38.45,38.45-101.02,0-139.48c-38.45-38.45-101.02-38.45-139.48,0
		C74.04,113.69,74.04,176.26,112.49,214.71L112.49,214.71z"/>
</g>
<g>
	<path class="st0" d="M182.54,239.5l-0.32,0l-0.45,0c-1.51,0-3-0.03-4.49-0.1c-0.35-0.02-0.61-0.31-0.6-0.65
		c0.02-0.35,0.31-0.6,0.65-0.6c1.46,0.07,2.94,0.1,4.43,0.1l0.45,0l0.32,0c0.35,0,0.63,0.28,0.63,0.63
		C183.17,239.22,182.89,239.5,182.54,239.5z M187.46,239.39c-0.33,0-0.61-0.26-0.62-0.6c-0.02-0.35,0.25-0.64,0.59-0.66
		c1.63-0.08,3.27-0.2,4.87-0.36c0.37-0.06,0.65,0.22,0.68,0.56c0.03,0.34-0.22,0.65-0.56,0.68c-1.62,0.16-3.28,0.28-4.93,0.36
		C187.48,239.39,187.47,239.39,187.46,239.39z M172.42,239.06c-0.02,0-0.04,0-0.06,0c-1.64-0.16-3.29-0.36-4.91-0.6
		c-0.34-0.05-0.58-0.37-0.53-0.71c0.05-0.34,0.36-0.58,0.71-0.53c1.6,0.24,3.23,0.44,4.84,0.59c0.35,0.03,0.6,0.34,0.56,0.68
		C173.01,238.82,172.73,239.06,172.42,239.06z M197.23,238.42c-0.31,0-0.57-0.22-0.62-0.53c-0.05-0.34,0.18-0.66,0.53-0.71
		c1.6-0.24,3.22-0.53,4.8-0.86c0.33-0.07,0.67,0.15,0.74,0.49c0.07,0.34-0.15,0.67-0.49,0.74c-1.61,0.33-3.25,0.62-4.87,0.87
		C197.29,238.42,197.26,238.42,197.23,238.42z M162.7,237.62c-0.04,0-0.08,0-0.12-0.01c-1.6-0.33-3.23-0.7-4.82-1.11
		c-0.33-0.09-0.53-0.43-0.45-0.76c0.08-0.33,0.42-0.54,0.76-0.45c1.57,0.41,3.17,0.78,4.75,1.1c0.34,0.07,0.56,0.4,0.49,0.74
		C163.25,237.41,162.99,237.62,162.7,237.62z M206.85,236.43c-0.28,0-0.53-0.19-0.61-0.47c-0.09-0.33,0.11-0.68,0.45-0.76
		c1.57-0.41,3.15-0.87,4.68-1.37c0.33-0.11,0.68,0.08,0.79,0.4c0.11,0.33-0.07,0.68-0.4,0.79c-1.56,0.5-3.16,0.97-4.75,1.39
		C206.96,236.43,206.9,236.43,206.85,236.43z M153.19,235.15c-0.06,0-0.13-0.01-0.19-0.03c-1.56-0.5-3.13-1.05-4.67-1.63
		c-0.32-0.12-0.48-0.48-0.36-0.81c0.12-0.32,0.48-0.49,0.81-0.36c1.52,0.58,3.07,1.12,4.61,1.61c0.33,0.11,0.51,0.46,0.41,0.79
		C153.7,234.98,153.46,235.15,153.19,235.15z M216.2,233.42c-0.25,0-0.49-0.15-0.58-0.4c-0.12-0.32,0.04-0.68,0.36-0.81
		c1.52-0.58,3.03-1.21,4.51-1.87c0.31-0.14,0.68,0,0.83,0.31c0.14,0.32,0,0.69-0.32,0.83c-1.49,0.67-3.03,1.31-4.57,1.9
		C216.36,233.41,216.28,233.42,216.2,233.42z M144,231.66c-0.08,0-0.17-0.02-0.25-0.05c-1.5-0.66-3-1.38-4.47-2.13
		c-0.31-0.16-0.43-0.53-0.27-0.84c0.16-0.31,0.54-0.43,0.84-0.27c1.45,0.74,2.93,1.45,4.4,2.1c0.32,0.14,0.46,0.51,0.32,0.83
		C144.47,231.52,144.24,231.66,144,231.66z M225.17,229.4c-0.23,0-0.45-0.12-0.56-0.34c-0.16-0.31-0.04-0.68,0.27-0.84
		c1.45-0.75,2.89-1.54,4.28-2.36c0.3-0.17,0.68-0.08,0.86,0.22c0.17,0.3,0.08,0.68-0.22,0.86c-1.41,0.83-2.87,1.63-4.33,2.39
		C225.36,229.38,225.26,229.4,225.17,229.4z M135.26,227.19c-0.11,0-0.22-0.03-0.32-0.09c-1.41-0.82-2.82-1.7-4.2-2.61
		c-0.29-0.19-0.37-0.58-0.18-0.87c0.19-0.29,0.58-0.37,0.87-0.18c1.36,0.9,2.76,1.76,4.15,2.57c0.3,0.17,0.4,0.56,0.23,0.86
		C135.68,227.08,135.47,227.19,135.26,227.19z M233.64,224.43c-0.2,0-0.4-0.1-0.52-0.28c-0.19-0.29-0.11-0.68,0.18-0.87
		c1.34-0.89,2.68-1.83,3.98-2.8c0.28-0.2,0.67-0.15,0.88,0.13c0.21,0.28,0.15,0.67-0.13,0.88c-1.32,0.98-2.68,1.94-4.04,2.84
		C233.88,224.39,233.76,224.43,233.64,224.43z M127.04,221.78c-0.13,0-0.26-0.04-0.37-0.12c-1.3-0.97-2.62-1.99-3.9-3.05
		c-0.27-0.22-0.3-0.61-0.08-0.88c0.22-0.27,0.61-0.3,0.88-0.08c1.27,1.05,2.56,2.06,3.85,3.01c0.28,0.21,0.34,0.6,0.13,0.87
		C127.42,221.69,127.23,221.78,127.04,221.78z M241.5,218.57c-0.18,0-0.36-0.08-0.48-0.23c-0.22-0.27-0.18-0.66,0.08-0.88
		c1.24-1.03,2.47-2.11,3.66-3.22c0.25-0.23,0.65-0.22,0.89,0.03c0.23,0.25,0.22,0.65-0.03,0.88c-1.21,1.12-2.46,2.22-3.72,3.26
		C241.79,218.52,241.65,218.57,241.5,218.57z M119.46,215.51c-0.15,0-0.3-0.06-0.42-0.17c-1.2-1.1-2.39-2.26-3.55-3.45
		c-0.24-0.25-0.24-0.64,0.01-0.89c0.25-0.24,0.64-0.24,0.89,0.01c1.15,1.17,2.33,2.32,3.51,3.4c0.25,0.23,0.27,0.63,0.04,0.89
		C119.8,215.44,119.63,215.51,119.46,215.51z M248.71,211.9c-0.16,0-0.31-0.06-0.44-0.18c-0.25-0.24-0.25-0.64-0.01-0.89
		c1.12-1.16,2.24-2.36,3.31-3.59c0.23-0.26,0.62-0.28,0.88-0.06c0.26,0.23,0.29,0.62,0.06,0.88c-1.09,1.24-2.21,2.46-3.35,3.63
		C249.03,211.84,248.87,211.9,248.71,211.9z M112.58,208.48c-0.17,0-0.35-0.07-0.47-0.21c-1.08-1.22-2.15-2.5-3.17-3.8
		c-0.22-0.27-0.17-0.66,0.1-0.88c0.27-0.21,0.67-0.17,0.88,0.1c1.02,1.28,2.07,2.54,3.13,3.75c0.23,0.26,0.2,0.65-0.06,0.88
		C112.87,208.42,112.73,208.48,112.58,208.48z M255.18,204.52c-0.14,0-0.27-0.04-0.39-0.13c-0.27-0.21-0.32-0.61-0.1-0.88
		c1.01-1.28,1.99-2.59,2.92-3.91c0.2-0.28,0.59-0.35,0.87-0.15c0.28,0.2,0.35,0.59,0.15,0.87c-0.95,1.33-1.94,2.67-2.96,3.96
		C255.55,204.43,255.36,204.52,255.18,204.52z M106.47,200.77c-0.19,0-0.39-0.09-0.51-0.26c-0.94-1.33-1.87-2.71-2.77-4.1
		c-0.19-0.29-0.1-0.68,0.19-0.86c0.29-0.19,0.68-0.1,0.86,0.19c0.88,1.38,1.8,2.74,2.73,4.05c0.2,0.28,0.13,0.67-0.15,0.87
		C106.73,200.73,106.6,200.77,106.47,200.77z M260.86,196.5c-0.12,0-0.23-0.03-0.34-0.1c-0.29-0.19-0.38-0.57-0.19-0.86
		c0.87-1.37,1.71-2.78,2.51-4.19c0.17-0.3,0.55-0.4,0.85-0.24c0.3,0.17,0.41,0.55,0.24,0.85c-0.81,1.43-1.67,2.86-2.55,4.24
		C261.27,196.4,261.06,196.5,260.86,196.5z M101.18,192.48c-0.22,0-0.43-0.11-0.54-0.32c-0.8-1.41-1.59-2.88-2.34-4.36
		c-0.16-0.31-0.03-0.69,0.28-0.84c0.31-0.16,0.68-0.03,0.84,0.28c0.74,1.46,1.52,2.91,2.31,4.31c0.17,0.3,0.07,0.68-0.23,0.85
		C101.4,192.46,101.29,192.48,101.18,192.48z M265.7,187.95c-0.09,0-0.19-0.02-0.28-0.07c-0.31-0.16-0.43-0.53-0.28-0.84
		c0.73-1.46,1.43-2.94,2.08-4.42c0.14-0.32,0.51-0.46,0.82-0.32c0.32,0.14,0.46,0.51,0.32,0.83c-0.66,1.49-1.37,3-2.11,4.48
		C266.15,187.82,265.93,187.95,265.7,187.95z M96.75,183.71c-0.24,0-0.47-0.14-0.57-0.37c-0.66-1.49-1.3-3.02-1.89-4.57
		c-0.12-0.32,0.04-0.68,0.36-0.81c0.33-0.12,0.69,0.04,0.81,0.36c0.59,1.53,1.22,3.05,1.87,4.51c0.14,0.32,0,0.69-0.32,0.83
		C96.92,183.69,96.84,183.71,96.75,183.71z M269.67,178.95c-0.07,0-0.15-0.01-0.22-0.04c-0.32-0.12-0.48-0.49-0.36-0.81
		c0.58-1.51,1.13-3.06,1.63-4.6c0.11-0.33,0.46-0.51,0.79-0.4c0.33,0.11,0.51,0.46,0.4,0.79c-0.51,1.57-1.07,3.14-1.65,4.67
		C270.16,178.8,269.92,178.95,269.67,178.95z M93.22,174.54c-0.26,0-0.51-0.17-0.6-0.43c-0.51-1.57-0.99-3.16-1.43-4.74
		c-0.09-0.33,0.11-0.68,0.44-0.77c0.33-0.09,0.68,0.11,0.77,0.44c0.43,1.56,0.9,3.13,1.41,4.68c0.11,0.33-0.07,0.68-0.4,0.79
		C93.35,174.53,93.29,174.54,93.22,174.54z M272.71,169.61c-0.05,0-0.11-0.01-0.16-0.02c-0.33-0.09-0.53-0.43-0.44-0.77
		c0.43-1.58,0.82-3.17,1.16-4.75c0.07-0.34,0.4-0.55,0.75-0.48c0.34,0.07,0.55,0.41,0.48,0.74c-0.35,1.59-0.74,3.21-1.18,4.81
		C273.24,169.42,272.99,169.61,272.71,169.61z M90.63,165.06c-0.29,0-0.55-0.2-0.61-0.49c-0.35-1.6-0.67-3.23-0.94-4.85
		c-0.06-0.34,0.17-0.66,0.51-0.72c0.34-0.05,0.66,0.17,0.72,0.51c0.27,1.6,0.58,3.22,0.93,4.79c0.07,0.34-0.14,0.67-0.48,0.75
		C90.72,165.05,90.67,165.06,90.63,165.06z M274.8,160c-0.03,0-0.07,0-0.1-0.01c-0.34-0.06-0.57-0.38-0.51-0.72
		c0.26-1.59,0.49-3.21,0.67-4.84c0.04-0.34,0.33-0.59,0.69-0.55c0.34,0.04,0.59,0.35,0.55,0.69c-0.19,1.65-0.42,3.3-0.68,4.9
		C275.37,159.78,275.11,160,274.8,160z M89,155.37c-0.31,0-0.58-0.24-0.62-0.55c-0.19-1.62-0.34-3.27-0.45-4.92
		c-0.02-0.35,0.24-0.64,0.58-0.67c0.33-0.04,0.64,0.24,0.67,0.58c0.11,1.63,0.25,3.27,0.44,4.86c0.04,0.34-0.21,0.65-0.55,0.69
		C89.05,155.37,89.02,155.37,89,155.37z M275.91,150.23c-0.01,0-0.03,0-0.04,0c-0.35-0.02-0.61-0.32-0.59-0.66
		c0.1-1.63,0.16-3.27,0.17-4.88c0-0.34,0.28-0.62,0.63-0.62c0,0,0,0,0.01,0c0.35,0,0.62,0.29,0.62,0.63
		c-0.02,1.63-0.07,3.3-0.18,4.95C276.52,149.97,276.24,150.23,275.91,150.23z M88.37,145.56c-0.34,0-0.62-0.28-0.63-0.62
		c-0.01-0.37-0.01-0.75-0.01-1.12c0-1.27,0.03-2.55,0.08-3.82c0.01-0.35,0.28-0.6,0.65-0.6c0.35,0.01,0.61,0.31,0.6,0.65
		c-0.05,1.26-0.08,2.52-0.08,3.78c0,0.37,0,0.74,0.01,1.11C89,145.28,88.73,145.56,88.37,145.56
		C88.38,145.56,88.38,145.56,88.37,145.56z M276,140.4c-0.33,0-0.61-0.26-0.62-0.6c-0.07-1.63-0.19-3.27-0.34-4.87
		c-0.03-0.34,0.22-0.65,0.56-0.68c0.36-0.06,0.65,0.22,0.68,0.56c0.16,1.63,0.27,3.29,0.35,4.94c0.01,0.35-0.25,0.64-0.6,0.65
		C276.02,140.39,276.01,140.4,276,140.4z M88.77,135.74c-0.02,0-0.04,0-0.06,0c-0.35-0.03-0.6-0.34-0.56-0.68
		c0.15-1.63,0.35-3.29,0.59-4.91c0.05-0.34,0.36-0.57,0.71-0.53c0.34,0.05,0.58,0.37,0.53,0.71c-0.24,1.61-0.43,3.24-0.59,4.85
		C89.37,135.5,89.09,135.74,88.77,135.74z M275.05,130.61c-0.31,0-0.57-0.22-0.62-0.53c-0.24-1.6-0.53-3.22-0.86-4.81
		c-0.07-0.34,0.15-0.67,0.48-0.74c0.35-0.07,0.67,0.15,0.74,0.49c0.33,1.61,0.63,3.25,0.87,4.87c0.05,0.34-0.18,0.66-0.53,0.71
		C275.11,130.61,275.08,130.61,275.05,130.61z M90.22,126.03c-0.04,0-0.08,0-0.12-0.01c-0.34-0.07-0.56-0.4-0.49-0.74
		c0.33-1.61,0.71-3.23,1.12-4.82c0.09-0.33,0.43-0.53,0.76-0.45c0.33,0.09,0.53,0.43,0.45,0.76c-0.41,1.57-0.78,3.17-1.1,4.75
		C90.77,125.82,90.51,126.03,90.22,126.03z M273.06,120.99c-0.28,0-0.53-0.19-0.61-0.47c-0.41-1.57-0.88-3.14-1.38-4.68
		c-0.11-0.33,0.07-0.68,0.4-0.79c0.33-0.1,0.68,0.07,0.79,0.4c0.51,1.56,0.98,3.16,1.4,4.75c0.09,0.33-0.11,0.68-0.45,0.77
		C273.17,120.98,273.11,120.99,273.06,120.99z M92.7,116.52c-0.06,0-0.13-0.01-0.19-0.03c-0.33-0.11-0.51-0.46-0.4-0.79
		c0.51-1.58,1.06-3.15,1.64-4.67c0.12-0.32,0.48-0.48,0.81-0.36c0.32,0.12,0.48,0.49,0.36,0.81c-0.57,1.5-1.12,3.05-1.62,4.6
		C93.21,116.35,92.97,116.52,92.7,116.52z M270.03,111.63c-0.25,0-0.49-0.15-0.58-0.4c-0.58-1.51-1.21-3.02-1.88-4.51
		c-0.14-0.31,0-0.69,0.31-0.83c0.31-0.14,0.68,0,0.83,0.31c0.68,1.5,1.32,3.04,1.91,4.57c0.12,0.32-0.04,0.68-0.36,0.81
		C270.18,111.62,270.1,111.63,270.03,111.63z M96.21,107.34c-0.09,0-0.17-0.02-0.26-0.05c-0.32-0.14-0.46-0.51-0.32-0.83
		c0.66-1.49,1.38-2.99,2.14-4.46c0.16-0.31,0.54-0.43,0.84-0.27c0.31,0.16,0.43,0.54,0.27,0.84c-0.75,1.45-1.46,2.93-2.11,4.4
		C96.68,107.2,96.45,107.34,96.21,107.34z M265.99,102.67c-0.23,0-0.45-0.12-0.56-0.34c-0.74-1.43-1.53-2.87-2.36-4.27
		c-0.17-0.3-0.08-0.68,0.22-0.86c0.3-0.17,0.68-0.08,0.86,0.22c0.84,1.42,1.64,2.88,2.39,4.33c0.16,0.31,0.04,0.68-0.27,0.84
		C266.19,102.65,266.09,102.67,265.99,102.67z M100.7,98.6c-0.11,0-0.22-0.03-0.32-0.09c-0.3-0.18-0.4-0.56-0.22-0.86
		c0.82-1.41,1.7-2.83,2.61-4.2c0.19-0.29,0.58-0.37,0.87-0.18c0.29,0.19,0.37,0.58,0.18,0.87c-0.9,1.36-1.76,2.76-2.58,4.15
		C101.13,98.49,100.92,98.6,100.7,98.6z M261.01,94.19c-0.2,0-0.4-0.1-0.52-0.28c-0.9-1.36-1.84-2.7-2.8-4
		c-0.21-0.28-0.15-0.67,0.13-0.88c0.28-0.2,0.67-0.15,0.87,0.13c0.97,1.31,1.93,2.68,2.84,4.05c0.19,0.29,0.11,0.68-0.17,0.87
		C261.25,94.16,261.13,94.19,261.01,94.19z M106.1,90.39c-0.13,0-0.26-0.04-0.37-0.12c-0.28-0.21-0.34-0.6-0.13-0.88
		c0.97-1.31,1.99-2.63,3.04-3.91c0.22-0.27,0.61-0.31,0.88-0.09c0.27,0.22,0.31,0.61,0.09,0.88c-1.03,1.26-2.04,2.56-3,3.86
		C106.49,90.3,106.3,90.39,106.1,90.39z M255.16,86.3c-0.18,0-0.36-0.08-0.48-0.23c-1.02-1.24-2.1-2.48-3.2-3.69
		c-0.23-0.26-0.22-0.65,0.04-0.88c0.26-0.23,0.65-0.21,0.89,0.04c1.12,1.22,2.21,2.48,3.24,3.74c0.22,0.27,0.18,0.66-0.08,0.88
		C255.44,86.25,255.3,86.3,255.16,86.3z M112.33,82.79c-0.15,0-0.3-0.05-0.42-0.16c-0.26-0.23-0.27-0.63-0.04-0.88
		c1.09-1.2,2.24-2.4,3.42-3.58c0.24-0.24,0.64-0.24,0.89,0c0.24,0.24,0.24,0.64,0,0.89c-1.16,1.16-2.3,2.35-3.37,3.53
		C112.67,82.72,112.51,82.79,112.33,82.79z M248.54,79.04c-0.16,0-0.33-0.06-0.45-0.19c-1.12-1.17-2.3-2.32-3.49-3.41
		c-0.25-0.23-0.27-0.63-0.04-0.88c0.24-0.25,0.63-0.27,0.89-0.04c1.21,1.12,2.4,2.28,3.54,3.46c0.24,0.25,0.23,0.65-0.02,0.89
		C248.85,78.98,248.7,79.04,248.54,79.04z M119.23,75.78c-0.17,0-0.33-0.07-0.46-0.2c-0.23-0.25-0.22-0.65,0.03-0.88
		c1.2-1.12,2.46-2.22,3.73-3.27c0.27-0.22,0.66-0.18,0.88,0.08c0.22,0.27,0.18,0.66-0.08,0.88c-1.25,1.03-2.49,2.11-3.67,3.22
		C119.54,75.73,119.39,75.78,119.23,75.78z M241.32,72.37c-0.14,0-0.28-0.05-0.4-0.14c-1.25-1.03-2.55-2.03-3.86-2.99
		c-0.28-0.2-0.34-0.6-0.14-0.87c0.2-0.28,0.59-0.34,0.87-0.14c1.33,0.97,2.64,1.99,3.91,3.03c0.27,0.22,0.31,0.61,0.09,0.88
		C241.68,72.29,241.5,72.37,241.32,72.37z M126.81,69.52c-0.19,0-0.38-0.09-0.5-0.26c-0.21-0.28-0.14-0.67,0.13-0.87
		c1.32-0.97,2.69-1.92,4.07-2.81c0.29-0.19,0.68-0.11,0.87,0.18c0.19,0.29,0.11,0.68-0.18,0.87c-1.36,0.88-2.71,1.82-4.01,2.77
		C127.07,69.48,126.94,69.52,126.81,69.52z M233.38,66.58c-0.12,0-0.23-0.03-0.34-0.1c-1.36-0.88-2.77-1.73-4.17-2.53
		c-0.3-0.17-0.41-0.55-0.23-0.85c0.17-0.3,0.56-0.4,0.85-0.23c1.43,0.81,2.85,1.68,4.24,2.57c0.29,0.19,0.37,0.57,0.19,0.87
		C233.79,66.48,233.59,66.58,233.38,66.58z M135.05,64.17c-0.22,0-0.43-0.11-0.54-0.31c-0.17-0.3-0.07-0.68,0.23-0.85
		c1.43-0.82,2.9-1.61,4.37-2.34c0.31-0.15,0.68-0.03,0.84,0.28c0.16,0.31,0.03,0.68-0.28,0.84c-1.44,0.72-2.89,1.5-4.3,2.31
		C135.26,64.14,135.16,64.17,135.05,64.17z M224.84,61.72c-0.09,0-0.19-0.02-0.28-0.07c-1.45-0.72-2.94-1.41-4.43-2.06
		c-0.32-0.14-0.46-0.51-0.33-0.82c0.13-0.32,0.5-0.46,0.82-0.33c1.51,0.65,3.02,1.35,4.49,2.08c0.31,0.15,0.43,0.53,0.28,0.84
		C225.29,61.59,225.07,61.72,224.84,61.72z M143.84,59.76c-0.24,0-0.47-0.14-0.57-0.38c-0.14-0.32,0.01-0.69,0.32-0.82
		c1.5-0.65,3.04-1.28,4.59-1.85c0.33-0.12,0.68,0.04,0.81,0.37c0.12,0.32-0.04,0.68-0.37,0.81c-1.53,0.57-3.05,1.18-4.53,1.83
		C144,59.74,143.92,59.76,143.84,59.76z M215.82,57.82c-0.07,0-0.14-0.01-0.22-0.04c-1.51-0.56-3.07-1.09-4.62-1.57
		c-0.33-0.1-0.51-0.45-0.41-0.78s0.46-0.51,0.78-0.41c1.58,0.49,3.15,1.03,4.69,1.59c0.32,0.12,0.49,0.48,0.37,0.8
		C216.31,57.67,216.07,57.82,215.82,57.82z M153.04,56.32c-0.27,0-0.51-0.17-0.6-0.44c-0.1-0.33,0.08-0.68,0.41-0.79
		c1.57-0.49,3.17-0.95,4.76-1.36c0.34-0.08,0.68,0.11,0.76,0.45c0.09,0.33-0.11,0.68-0.45,0.76c-1.57,0.41-3.15,0.86-4.7,1.34
		C153.17,56.31,153.11,56.32,153.04,56.32z M206.43,54.9c-0.05,0-0.1-0.01-0.16-0.02c-1.57-0.4-3.17-0.77-4.76-1.09
		c-0.34-0.07-0.56-0.4-0.49-0.74c0.07-0.34,0.39-0.56,0.74-0.49c1.61,0.32,3.23,0.7,4.82,1.1c0.33,0.09,0.54,0.43,0.45,0.76
		C206.96,54.71,206.71,54.9,206.43,54.9z M162.56,53.86c-0.29,0-0.55-0.2-0.61-0.5c-0.07-0.34,0.15-0.67,0.49-0.74
		c1.6-0.33,3.24-0.62,4.87-0.87c0.35-0.06,0.66,0.18,0.71,0.52c0.05,0.34-0.18,0.66-0.52,0.71c-1.61,0.25-3.23,0.53-4.81,0.86
		C162.64,53.86,162.6,53.86,162.56,53.86z M196.8,52.96c-0.03,0-0.06,0-0.09-0.01c-1.61-0.24-3.24-0.44-4.85-0.6
		c-0.35-0.03-0.6-0.34-0.56-0.68c0.03-0.34,0.28-0.62,0.68-0.56c1.63,0.16,3.28,0.36,4.91,0.61c0.34,0.05,0.58,0.37,0.53,0.71
		C197.37,52.73,197.1,52.96,196.8,52.96z M172.28,52.38c-0.32,0-0.59-0.24-0.62-0.56c-0.03-0.34,0.22-0.65,0.56-0.69
		c1.63-0.16,3.29-0.29,4.93-0.38c0.39,0,0.64,0.25,0.66,0.59c0.02,0.35-0.25,0.64-0.59,0.66c-1.63,0.08-3.27,0.21-4.87,0.37
		C172.32,52.38,172.3,52.38,172.28,52.38z M187.01,51.99c-0.01,0-0.02,0-0.03,0c-1.58-0.08-3.18-0.11-4.75-0.11
		c-0.35,0-0.69-0.28-0.69-0.63s0.21-0.63,0.56-0.63h0.13c1.59,0,3.21,0.04,4.81,0.12c0.35,0.02,0.61,0.31,0.6,0.66
		C187.62,51.73,187.34,51.99,187.01,51.99z"/>
</g>
<g>
	<path class="st0" d="M213.51,144.05c-1.34-0.96-3.17-1.5-5.28-1.74c3.29-4.77,4.89-11.05,4.75-18.76c-0.05-2.8-0.84-4.47-2.35-4.95
		c-6.24-2.01-23.06,19.47-27.81,25.74v-5.99h-1.17v5.99c-4.75-6.27-21.57-27.72-27.81-25.74c-1.51,0.48-2.3,2.15-2.35,4.95
		c-0.14,7.71,1.46,13.99,4.75,18.76c-2.1,0.24-3.94,0.78-5.28,1.74c-1.61,1.15-2.43,2.82-2.43,4.94c0,4.24,1.44,7.32,4.27,9.16
		c2.23,1.45,5.13,1.99,8.24,1.99c0.83,0,1.67-0.05,2.52-0.12c-1.5,1.77-2.5,3.54-2.6,5.18c-0.1,1.65,0.65,3.05,2.25,4.17
		c1.48,1.04,3.04,1.56,4.64,1.56c0.66,0,1.33-0.09,2.01-0.27c5.39-1.42,9.82-8.14,11.8-11.63v12.43h1.17v-12.43
		c1.98,3.49,6.41,10.21,11.8,11.63c0.68,0.18,1.35,0.27,2.01,0.27c1.6,0,3.15-0.52,4.64-1.56c1.59-1.11,2.35-2.52,2.25-4.17
		c-0.1-1.64-1.1-3.41-2.6-5.18c0.85,0.07,1.69,0.12,2.52,0.12c3.11,0,6.01-0.55,8.24-1.99c2.83-1.84,4.27-4.92,4.27-9.16
		C215.94,146.87,215.12,145.21,213.51,144.05z M153.43,157.17c-2.48-1.61-3.74-4.36-3.74-8.18c0-1.75,0.63-3.05,1.94-3.99
		c1.32-0.94,3.2-1.44,5.39-1.62c0.8,1.01,1.67,1.96,2.64,2.82c4.08,3.63,8.98,5.29,13.18,6c-2.84,1.93-5.82,4.19-8.08,6.51
		C160.47,159.25,156.29,159.03,153.43,157.17z M158.48,143.32c0.21,0,0.41-0.01,0.63-0.01c7.74,0,17.94,2.96,21.56,4.09
		c-1.39,0.77-3.73,2.12-6.34,3.82c-4.31-0.57-9.63-2.09-13.9-5.89C159.74,144.71,159.09,144.03,158.48,143.32z M181.64,156.55
		c-0.6,1.21-5.8,11.33-12.1,12.99c-1.96,0.52-3.87,0.14-5.67-1.12c-1.25-0.88-1.82-1.9-1.75-3.13c0.11-1.67,1.33-3.55,3.12-5.44
		c6.99-0.9,14.02-3.65,16.4-4.64V156.55z M181.64,153.93c-1.57,0.66-8.16,3.35-14.95,4.5c2.33-2.13,5.22-4.22,7.89-5.97
		c1.61,0.19,3.06,0.25,4.27,0.25c1.23,0,2.19-0.06,2.79-0.12V153.93z M181.64,151.42c-0.89,0.08-2.89,0.19-5.42-0.01
		c2.33-1.46,4.33-2.6,5.42-3.2V151.42z M181.64,146.47c-3.21-1.04-15.37-4.75-24.02-4.28c-3.42-4.63-5.12-10.85-4.98-18.62
		c0.04-2.24,0.56-3.54,1.54-3.85c0.2-0.06,0.41-0.09,0.64-0.09c5.72,0,21.02,18.89,26.81,26.67V146.47z M182.82,146.3
		c6.02-8.1,22.33-28.22,27.45-26.58c0.98,0.31,1.5,1.61,1.54,3.85c0.14,7.77-1.55,13.99-4.98,18.62c-8.64-0.47-20.8,3.24-24.02,4.28
		V146.3z M205.98,143.32c-0.61,0.71-1.26,1.39-1.96,2.01c-4.27,3.8-9.59,5.32-13.9,5.89c-2.61-1.7-4.95-3.05-6.34-3.82
		C187.52,146.23,198.18,143.15,205.98,143.32z M182.82,148.21c1.08,0.6,3.09,1.74,5.42,3.2c-2.53,0.2-4.53,0.09-5.42,0.01V148.21z
		 M182.82,152.61c0.6,0.05,1.56,0.12,2.79,0.12c1.2,0,2.66-0.06,4.27-0.25c2.67,1.75,5.56,3.83,7.89,5.97
		c-6.79-1.16-13.38-3.84-14.95-4.5V152.61z M202.34,165.29c0.08,1.23-0.49,2.26-1.75,3.13c-1.8,1.26-3.71,1.63-5.67,1.12
		c-6.3-1.66-11.5-11.79-12.1-12.99v-1.34c2.37,0.99,9.4,3.74,16.4,4.64C201.01,161.74,202.23,163.62,202.34,165.29z M211.03,157.17
		c-2.86,1.86-7.04,2.07-11.33,1.55c-2.27-2.31-5.24-4.58-8.08-6.51c4.2-0.72,9.1-2.37,13.18-6c0.97-0.86,1.84-1.8,2.64-2.82
		c2.19,0.18,4.07,0.67,5.39,1.61c1.31,0.93,1.94,2.24,1.94,3.99C214.76,152.81,213.51,155.57,211.03,157.17z"/>
</g>
<g>
	<path class="st0" d="M59.25,115.38l1.34-5.12l22.51-1.76l-1.28,4.88l-4.99,0.19l-1.78,6.82l4.25,2.62l-1.28,4.88L59.25,115.38z
		 M73.32,113.71l-8.6,0.33l7.33,4.51L73.32,113.71z"/>
	<path class="st0" d="M84.28,106.12l-19.29-9.11l2.1-4.46l15.38,7.26l4.41-9.35l3.91,1.85L84.28,106.12z"/>
	<path class="st0" d="M97.49,75.19l3.53,2.5l-8.67,12.24L74.95,77.59l8.51-12.01l3.53,2.5l-5.66,7.99l3.38,2.4l4.86-6.86l3.26,2.31
		l-4.86,6.86l3.7,2.62L97.49,75.19z"/>
	<path class="st0" d="M90.73,57.52l8.43,2.03l-1.8-8.48l3.83-3.73l2.49,12.68l12.22,2.78l-3.83,3.73l-8.05-1.98l1.76,8.1l-3.85,3.75
		L99.48,64.1l-12.61-2.82L90.73,57.52z"/>
	<path class="st0" d="M131.34,52.53l-8.68-19.49l7.27-3.24c2.14-0.95,4.13-1.32,5.96-1.09c1.83,0.23,3.44,0.91,4.82,2.06
		c1.38,1.15,2.47,2.62,3.27,4.42c0.88,1.98,1.24,3.88,1.09,5.7c-0.15,1.82-0.78,3.46-1.87,4.91c-1.1,1.45-2.62,2.62-4.58,3.49
		L131.34,52.53z M139.39,37.23c-0.51-1.13-1.15-2.05-1.94-2.74c-0.79-0.69-1.68-1.11-2.66-1.25c-0.99-0.14-2.02,0.03-3.1,0.51
		l-2.77,1.24l5.16,11.58l2.77-1.23c1.1-0.49,1.92-1.15,2.45-2c0.53-0.84,0.81-1.8,0.81-2.86C140.12,39.41,139.88,38.33,139.39,37.23
		z"/>
	<path class="st0" d="M149.42,40.86l7.63-15.41l-10.22,2.34l-0.97-4.22l15.99-3.67l0.83,3.6l-7.13,15.29l10.22-2.34l0.97,4.22
		l-16.49,3.78L149.42,40.86z"/>
	<path class="st0" d="M169.24,35.26c0.23,0.11,0.67,0.27,1.33,0.49c0.66,0.22,1.42,0.31,2.3,0.25c0.72-0.04,1.3-0.2,1.73-0.46
		c0.43-0.26,0.75-0.65,0.95-1.16c0.2-0.51,0.32-1.16,0.35-1.94c0.03-0.79,0.01-1.72-0.05-2.81l-0.67-10.89l4.92-0.3l0.66,10.74
		c0.1,1.59,0.09,3.04,0,4.36c-0.1,1.32-0.4,2.48-0.89,3.47c-0.49,0.99-1.27,1.78-2.34,2.35c-1.07,0.57-2.52,0.91-4.36,1.03
		c-0.94,0.06-1.8,0-2.57-0.18c-0.77-0.17-1.49-0.46-2.16-0.86L169.24,35.26z"/>
	<path class="st0" d="M194.95,40.78c-1.69-0.2-3.1-0.66-4.22-1.37c-1.13-0.71-2-1.61-2.63-2.69c-0.63-1.08-1.04-2.28-1.23-3.58
		c-0.2-1.3-0.21-2.64-0.05-4.01l1.31-10.81l4.89,0.59l-1.31,10.81c-0.1,0.81-0.11,1.6-0.04,2.35c0.07,0.75,0.24,1.43,0.52,2.04
		c0.28,0.61,0.69,1.12,1.22,1.54c0.53,0.42,1.22,0.68,2.05,0.78c0.84,0.1,1.56,0.02,2.18-0.25c0.62-0.27,1.14-0.68,1.56-1.23
		c0.42-0.55,0.76-1.19,1.02-1.9c0.26-0.71,0.43-1.46,0.53-2.23L202.06,20l4.86,0.59l-1.31,10.81c-0.18,1.47-0.53,2.81-1.05,4.03
		c-0.52,1.22-1.22,2.27-2.09,3.15c-0.87,0.88-1.93,1.52-3.18,1.91C198.05,40.89,196.6,40.98,194.95,40.78z"/>
	<path class="st0" d="M226.89,43.29c-0.4,1.18-1.03,2.04-1.9,2.59c-0.87,0.55-1.89,0.84-3.06,0.88c-1.18,0.03-2.4-0.17-3.67-0.6
		l-9.81-3.34l6.87-20.2l11.21,3.81c0.95,0.32,1.68,0.85,2.2,1.59c0.52,0.74,0.83,1.57,0.93,2.49c0.1,0.92,0,1.81-0.29,2.66
		c-0.32,0.93-0.87,1.75-1.65,2.47c-0.78,0.72-1.73,1.12-2.84,1.21c1.04,0.73,1.75,1.65,2.12,2.75
		C227.38,40.72,227.35,41.94,226.89,43.29z M222.47,40.77c0.14-0.42,0.19-0.82,0.13-1.23c-0.05-0.4-0.18-0.75-0.39-1.04
		c-0.21-0.29-0.51-0.51-0.91-0.64l-5.35-1.82l-1.5,4.41l5.15,1.75c0.42,0.14,0.82,0.17,1.21,0.09c0.39-0.08,0.72-0.25,1.01-0.51
		C222.12,41.53,222.33,41.19,222.47,40.77z M218.63,28.2l-1.42,4.18l4.55,1.55c0.36,0.12,0.72,0.16,1.07,0.11
		c0.36-0.05,0.67-0.19,0.96-0.43c0.28-0.24,0.51-0.6,0.67-1.08c0.16-0.47,0.21-0.89,0.16-1.25c-0.06-0.36-0.19-0.66-0.4-0.92
		c-0.21-0.25-0.5-0.44-0.86-0.56L218.63,28.2z"/>
	<path class="st0" d="M243.09,34.04l4.58,2.64l-4.25,22.18l-4.37-2.52l1.13-4.86l-6.1-3.52l-3.65,3.41l-4.38-2.52L243.09,34.04z
		 M240.98,48.05l1.95-8.38l-6.28,5.88L240.98,48.05z"/>
	<path class="st0" d="M257.27,54.61l-8.15,9.12l-3.67-3.28l14.22-15.91l2.91,2.6l-1,15.95l8.37-9.36l3.65,3.26L259.39,72.9
		l-2.98-2.66L257.27,54.61z"/>
	<path class="st0" d="M267.69,83.95c-0.91-1.27-1.49-2.61-1.74-4.02c-0.25-1.41-0.23-2.79,0.06-4.16c0.29-1.37,0.82-2.63,1.58-3.78
		c0.76-1.16,1.7-2.14,2.83-2.94c1.16-0.83,2.41-1.4,3.76-1.71c1.35-0.31,2.72-0.38,4.09-0.19c1.38,0.19,2.68,0.64,3.91,1.36
		c1.23,0.72,2.29,1.71,3.19,2.97c0.92,1.29,1.51,2.64,1.76,4.04c0.25,1.41,0.23,2.79-0.08,4.16c-0.31,1.36-0.84,2.62-1.6,3.78
		c-0.76,1.16-1.69,2.13-2.78,2.91c-1.16,0.83-2.41,1.4-3.76,1.72c-1.35,0.32-2.71,0.38-4.09,0.19c-1.38-0.19-2.69-0.65-3.92-1.36
		C269.67,86.21,268.6,85.22,267.69,83.95z M273.27,73.14c-0.67,0.48-1.25,1.04-1.73,1.69c-0.48,0.65-0.83,1.34-1.05,2.08
		c-0.22,0.73-0.27,1.48-0.16,2.26c0.11,0.77,0.43,1.54,0.98,2.31c0.53,0.75,1.16,1.3,1.87,1.66c0.71,0.35,1.45,0.54,2.23,0.55
		c0.78,0.01,1.55-0.11,2.3-0.37c0.75-0.26,1.46-0.61,2.11-1.08c0.67-0.48,1.24-1.04,1.71-1.69c0.47-0.64,0.82-1.34,1.05-2.08
		c0.22-0.74,0.27-1.49,0.14-2.26c-0.13-0.77-0.45-1.51-0.96-2.23c-0.55-0.77-1.17-1.33-1.87-1.69c-0.7-0.36-1.44-0.55-2.21-0.56
		c-0.77-0.01-1.53,0.1-2.29,0.34C274.64,72.3,273.94,72.66,273.27,73.14z"/>
	<path class="st0" d="M295.78,89.02l-12.19,10.89l16.24-1.77l2.11,4.75l-22.65,1.56l-1.96-4.42l16.34-15.79L295.78,89.02z"/>
	<path class="st0" d="M304.5,112.59l1.24,5.14l-19.01,12.19l-1.18-4.91l4.31-2.52l-1.65-6.85l-4.99-0.3l-1.18-4.91L304.5,112.59z
		 M292.89,120.7l7.42-4.35l-8.59-0.51L292.89,120.7z"/>
</g>
<g>
	<path class="st0" d="M78.24,184.71l-1.33-4.12l-10.79,3.47l-1.01-3.13l10.79-3.47l-1.33-4.14l2.74-0.88l3.66,11.39L78.24,184.71z"
		/>
	<path class="st0" d="M77.97,193.01c-0.3-0.72-0.69-1.31-1.16-1.8c-0.47-0.48-0.98-0.76-1.54-0.83l-5.82,2.45l-1.24-2.96l9.58-4.03
		l1.13,2.7l-1.85,0.78c0.8,0.07,1.49,0.29,2.08,0.67c0.59,0.37,1.02,0.85,1.27,1.42c0.06,0.13,0.1,0.23,0.12,0.3
		c0.03,0.06,0.05,0.13,0.06,0.19L77.97,193.01z"/>
	<path class="st0" d="M74.24,196.2c0.59-0.31,1.21-0.42,1.85-0.32c0.64,0.1,1.25,0.38,1.84,0.84c0.58,0.46,1.08,1.08,1.49,1.86
		c0.2,0.38,0.36,0.77,0.49,1.17c0.13,0.4,0.21,0.77,0.23,1.1l0.41-0.21c0.5-0.27,0.8-0.62,0.89-1.06c0.09-0.44-0.02-0.98-0.36-1.6
		c-0.27-0.51-0.61-0.94-1.04-1.31c-0.42-0.37-0.93-0.71-1.53-1.05l1.35-1.81c0.73,0.4,1.36,0.88,1.91,1.45
		c0.55,0.56,1.02,1.22,1.41,1.96c0.74,1.39,0.99,2.64,0.75,3.76c-0.24,1.12-0.99,2.01-2.24,2.67l-2.37,1.25
		c-0.28,0.15-0.45,0.29-0.52,0.45c-0.07,0.15-0.05,0.33,0.05,0.55l-2.36,1.25c-0.18-0.21-0.34-0.4-0.46-0.6
		c-0.12-0.19-0.23-0.36-0.31-0.52c-0.28-0.53-0.39-0.99-0.32-1.37c0.07-0.38,0.26-0.71,0.59-0.99l0.37-0.28
		c-0.74-0.12-1.41-0.39-1.99-0.82c-0.58-0.43-1.04-0.95-1.37-1.58c-0.32-0.62-0.49-1.23-0.5-1.86c-0.01-0.62,0.13-1.19,0.43-1.71
		C73.25,196.9,73.67,196.49,74.24,196.2z M76.88,202c0.17,0.07,0.35,0.12,0.52,0.13c0.18,0.01,0.32-0.01,0.42-0.06l0.81-0.43
		c-0.03-0.28-0.1-0.59-0.21-0.91c-0.1-0.32-0.22-0.61-0.35-0.86c-0.27-0.51-0.61-0.87-1.02-1.09c-0.41-0.22-0.79-0.24-1.15-0.05
		c-0.2,0.1-0.35,0.26-0.47,0.47c-0.11,0.21-0.17,0.45-0.15,0.7s0.09,0.53,0.24,0.81c0.15,0.28,0.35,0.54,0.6,0.77
		S76.62,201.9,76.88,202z"/>
	<path class="st0" d="M83.81,218.17l-1.8-2.65l4.8-3.26c0.57-0.38,0.9-0.77,1-1.17s0.04-0.77-0.2-1.11c-0.16-0.24-0.4-0.45-0.7-0.62
		c-0.3-0.17-0.63-0.28-1-0.34c-0.37-0.06-0.73-0.04-1.09,0.06l-4.92,3.34l-1.8-2.65l8.6-5.84l1.62,2.39l-1.47,1
		c0.5-0.02,0.98,0.06,1.45,0.23c0.46,0.17,0.9,0.43,1.31,0.78c0.41,0.35,0.79,0.77,1.12,1.27c0.39,0.58,0.6,1.1,0.65,1.58
		c0.04,0.48-0.04,0.92-0.24,1.32c-0.2,0.4-0.47,0.76-0.8,1.09c-0.34,0.33-0.68,0.61-1.04,0.86L83.81,218.17z"/>
	<path class="st0" d="M88.36,224.07c-0.58-0.68-1.02-1.45-1.33-2.29c-0.31-0.85-0.45-1.68-0.39-2.51l2.26-0.43
		c0.04,0.78,0.17,1.48,0.38,2.09c0.21,0.62,0.49,1.13,0.83,1.54c0.26,0.31,0.51,0.51,0.75,0.61c0.24,0.1,0.47,0.07,0.67-0.1
		c0.15-0.13,0.22-0.28,0.21-0.45c-0.01-0.17-0.06-0.4-0.16-0.66c-0.09-0.27-0.23-0.59-0.41-0.96c-0.3-0.79-0.53-1.47-0.69-2.04
		c-0.16-0.57-0.18-1.07-0.08-1.5c0.11-0.44,0.38-0.84,0.82-1.21c0.54-0.45,1.12-0.7,1.75-0.76c0.63-0.06,1.26,0.07,1.9,0.38
		c0.64,0.31,1.25,0.81,1.83,1.51c0.46,0.55,0.83,1.17,1.1,1.85c0.27,0.68,0.39,1.42,0.36,2.24l-2.33,0.31
		c-0.06-0.72-0.17-1.32-0.33-1.8c-0.16-0.48-0.38-0.9-0.67-1.23c-0.14-0.17-0.3-0.32-0.46-0.42c-0.16-0.11-0.32-0.17-0.48-0.18
		c-0.17-0.01-0.33,0.05-0.49,0.19c-0.14,0.12-0.22,0.26-0.24,0.43c-0.02,0.17,0.01,0.37,0.11,0.62c0.09,0.24,0.21,0.54,0.37,0.88
		c0.37,0.84,0.64,1.57,0.82,2.17c0.18,0.6,0.22,1.14,0.11,1.6c-0.11,0.46-0.4,0.9-0.87,1.29c-0.8,0.68-1.68,0.91-2.64,0.7
		C90.11,225.69,89.21,225.08,88.36,224.07z"/>
	<path class="st0" d="M93.55,229.59l5.14-5.06l-0.94-0.96l1.74-1.72l0.94,0.96l0.61-0.6c0.62-0.61,1.26-1.03,1.94-1.27
		c0.68-0.24,1.33-0.28,1.97-0.14c0.64,0.14,1.22,0.48,1.74,1.01c0.3,0.3,0.58,0.66,0.83,1.05c0.25,0.4,0.47,0.84,0.66,1.31
		l-2.12,1.3c-0.09-0.21-0.21-0.43-0.35-0.67c-0.14-0.24-0.29-0.44-0.45-0.6c-0.27-0.27-0.57-0.4-0.89-0.36
		c-0.32,0.04-0.65,0.22-1,0.56l-0.7,0.69l1.71,1.74l-1.74,1.72l-1.72-1.74l-5.14,5.06L93.55,229.59z"/>
	<path class="st0" d="M102.96,238.71c-0.69-0.59-1.21-1.21-1.55-1.87c-0.34-0.66-0.53-1.34-0.58-2.04c-0.04-0.7,0.05-1.38,0.28-2.03
		c0.23-0.65,0.57-1.25,1.03-1.8c0.47-0.55,1.01-0.99,1.62-1.33c0.61-0.33,1.26-0.53,1.94-0.61c0.68-0.08,1.39,0,2.11,0.24
		c0.72,0.23,1.42,0.65,2.1,1.22c0.68,0.58,1.2,1.2,1.55,1.86c0.35,0.67,0.54,1.34,0.59,2.04c0.04,0.69-0.04,1.37-0.27,2.03
		c-0.22,0.66-0.57,1.26-1.04,1.82c-0.46,0.54-0.99,0.98-1.6,1.31c-0.6,0.33-1.26,0.54-1.96,0.61c-0.7,0.07-1.41-0.01-2.12-0.24
		C104.34,239.69,103.64,239.29,102.96,238.71z M104.64,233.09c-0.34,0.4-0.56,0.82-0.66,1.26c-0.1,0.44-0.09,0.86,0.02,1.26
		c0.12,0.4,0.35,0.74,0.7,1.04c0.34,0.28,0.71,0.45,1.13,0.51c0.42,0.06,0.83-0.01,1.24-0.18c0.41-0.17,0.79-0.46,1.13-0.87
		c0.35-0.41,0.57-0.83,0.67-1.26c0.1-0.43,0.1-0.85-0.02-1.26c-0.12-0.41-0.35-0.75-0.68-1.04c-0.34-0.28-0.71-0.45-1.12-0.5
		c-0.41-0.05-0.83,0.01-1.25,0.18C105.37,232.39,104.99,232.68,104.64,233.09z"/>
	<path class="st0" d="M119.58,241.23c-0.63-0.45-1.28-0.74-1.94-0.9c-0.66-0.16-1.24-0.12-1.74,0.12l-3.61,5.17l-2.63-1.83
		l5.95-8.53l2.4,1.67l-1.15,1.64c0.71-0.37,1.42-0.55,2.12-0.55c0.7,0,1.31,0.17,1.84,0.52c0.12,0.08,0.21,0.15,0.26,0.18
		c0.06,0.04,0.11,0.08,0.15,0.13L119.58,241.23z"/>
	<path class="st0" d="M132.06,257.13l-2.82-1.52l2.74-5.11c0.32-0.59,0.44-1.08,0.37-1.48c-0.07-0.39-0.29-0.69-0.67-0.89
		c-0.36-0.2-0.81-0.24-1.34-0.14c-0.53,0.11-1,0.36-1.41,0.76l-2.79,5.2l-2.82-1.52l2.75-5.11c0.32-0.6,0.44-1.1,0.37-1.49
		c-0.08-0.39-0.29-0.68-0.65-0.87c-0.37-0.2-0.81-0.25-1.33-0.15c-0.52,0.09-0.99,0.34-1.41,0.73l-2.81,5.24l-2.82-1.52l4.92-9.16
		l2.54,1.36l-0.84,1.56c0.64-0.37,1.33-0.55,2.07-0.53c0.74,0.02,1.5,0.24,2.29,0.67c0.76,0.41,1.26,0.9,1.47,1.47
		c0.22,0.57,0.26,1.12,0.12,1.66c0.65-0.37,1.35-0.55,2.1-0.55c0.75,0.01,1.49,0.2,2.22,0.6c0.59,0.32,1.01,0.67,1.25,1.08
		c0.25,0.4,0.37,0.83,0.38,1.28c0.01,0.45-0.06,0.9-0.2,1.34c-0.15,0.44-0.32,0.85-0.53,1.23L132.06,257.13z"/>
	<path class="st0" d="M135.53,258.29l3.89-9.77l2.98,1.19l-3.89,9.77L135.53,258.29z M139.85,247.42l1.08-2.72l2.98,1.19l-1.08,2.72
		L139.85,247.42z"/>
	<path class="st0" d="M151.24,263.66l-3.07-0.94l1.7-5.55c0.2-0.65,0.21-1.17,0.04-1.54c-0.17-0.37-0.46-0.62-0.85-0.74
		c-0.28-0.09-0.59-0.1-0.93-0.04c-0.34,0.06-0.67,0.18-0.99,0.37c-0.32,0.18-0.59,0.43-0.81,0.72l-1.74,5.69l-3.06-0.94l3.05-9.94
		l2.76,0.85l-0.52,1.7c0.38-0.32,0.8-0.57,1.27-0.73c0.47-0.16,0.97-0.23,1.51-0.22c0.54,0.01,1.1,0.11,1.67,0.29
		c0.66,0.2,1.16,0.48,1.49,0.83c0.33,0.35,0.55,0.74,0.65,1.18c0.1,0.43,0.11,0.89,0.06,1.35c-0.06,0.46-0.15,0.91-0.28,1.32
		L151.24,263.66z"/>
	<path class="st0" d="M158.7,265.47c-0.68-0.13-1.28-0.38-1.8-0.75c-0.52-0.37-0.93-0.84-1.24-1.39c-0.31-0.55-0.52-1.17-0.63-1.84
		c-0.11-0.67-0.09-1.37,0.04-2.09c0.14-0.75,0.39-1.43,0.74-2.05c0.36-0.61,0.8-1.12,1.31-1.52c0.52-0.4,1.09-0.68,1.73-0.85
		c0.63-0.16,1.31-0.18,2.02-0.05c0.77,0.14,1.43,0.43,1.96,0.86c0.53,0.43,0.92,0.97,1.17,1.63l0.31-1.69l2.74,0.5l-1.77,9.58
		c-0.19,1.03-0.61,1.87-1.25,2.54s-1.46,1.12-2.43,1.36c-0.97,0.24-2.05,0.26-3.23,0.04c-1.1-0.21-2.02-0.56-2.75-1.07
		s-1.33-1.15-1.8-1.91l2.01-1.4c0.3,0.5,0.71,0.94,1.22,1.31c0.52,0.37,1.1,0.61,1.74,0.73c0.51,0.1,1,0.09,1.46,0
		c0.46-0.1,0.86-0.31,1.19-0.63c0.33-0.33,0.56-0.8,0.67-1.42l0.19-1.02c-0.42,0.52-0.96,0.87-1.61,1.06
		C160.03,265.56,159.37,265.59,158.7,265.47z M160.27,263.17c0.22,0.04,0.45,0.04,0.69,0.01c0.24-0.03,0.46-0.09,0.67-0.18
		c0.21-0.09,0.4-0.21,0.59-0.36c0.19-0.15,0.35-0.32,0.48-0.52l0.4-2.18c-0.06-0.39-0.19-0.75-0.39-1.06
		c-0.2-0.32-0.43-0.58-0.71-0.79c-0.27-0.21-0.57-0.34-0.9-0.4c-0.33-0.06-0.65-0.04-0.96,0.06c-0.31,0.1-0.6,0.27-0.86,0.5
		c-0.26,0.23-0.48,0.5-0.65,0.8c-0.17,0.3-0.29,0.64-0.36,1.01c-0.07,0.38-0.07,0.74-0.01,1.08c0.07,0.34,0.19,0.65,0.37,0.93
		c0.18,0.28,0.41,0.52,0.68,0.71C159.6,262.97,159.91,263.1,160.27,263.17z"/>
	<path class="st0" d="M174.25,267.27l0.72-14.2l3.28,0.17l-0.72,14.2L174.25,267.27z"/>
	<path class="st0" d="M180.15,262.45c-0.04-1,0.13-1.91,0.51-2.74c0.37-0.82,0.89-1.49,1.57-1.99c0.68-0.5,1.47-0.76,2.38-0.79
		c0.73-0.03,1.41,0.12,2.02,0.45c0.61,0.32,1.08,0.77,1.41,1.33l-0.21-5.96l3.2-0.11l0.39,11.05c0.01,0.32,0.07,0.54,0.18,0.67
		c0.1,0.13,0.29,0.2,0.56,0.2l0.09,2.66c-0.57,0.13-1.03,0.2-1.38,0.21c-0.56,0.02-1.01-0.09-1.35-0.31
		c-0.34-0.23-0.56-0.55-0.66-0.98l-0.06-0.54c-0.36,0.67-0.86,1.17-1.49,1.52c-0.63,0.34-1.3,0.53-2,0.55
		c-0.72,0.03-1.39-0.08-2.01-0.33c-0.62-0.25-1.16-0.61-1.62-1.08c-0.46-0.47-0.83-1.03-1.09-1.67
		C180.33,263.94,180.18,263.23,180.15,262.45z M188.22,263.44l-0.08-2.15c-0.14-0.35-0.35-0.65-0.6-0.9
		c-0.26-0.25-0.55-0.45-0.86-0.6c-0.32-0.15-0.63-0.22-0.94-0.21c-0.36,0.01-0.68,0.1-0.97,0.27c-0.29,0.17-0.53,0.38-0.73,0.63
		c-0.2,0.25-0.35,0.55-0.45,0.88c-0.1,0.33-0.14,0.68-0.13,1.06c0.01,0.38,0.09,0.72,0.22,1.03c0.14,0.31,0.32,0.57,0.55,0.8
		c0.23,0.22,0.5,0.4,0.82,0.53c0.32,0.13,0.66,0.18,1.02,0.17c0.23-0.01,0.45-0.05,0.66-0.12c0.21-0.07,0.41-0.18,0.6-0.31
		c0.19-0.14,0.36-0.3,0.51-0.47C188,263.87,188.12,263.66,188.22,263.44z"/>
	<path class="st0" d="M200.5,266.32c-0.89,0.13-1.69,0.11-2.42-0.07c-0.73-0.18-1.37-0.47-1.93-0.88c-0.56-0.41-1.01-0.91-1.35-1.51
		c-0.35-0.59-0.57-1.24-0.68-1.93c-0.15-0.99-0.07-1.92,0.26-2.8c0.32-0.88,0.86-1.63,1.61-2.25c0.76-0.62,1.72-1.02,2.9-1.2
		c1.17-0.18,2.22-0.08,3.12,0.28c0.9,0.36,1.63,0.92,2.18,1.66c0.55,0.74,0.9,1.58,1.04,2.5c0.03,0.18,0.04,0.37,0.05,0.54
		c0.01,0.18,0.01,0.33,0.02,0.47l-7.68,1.16c0.09,0.45,0.28,0.81,0.55,1.08c0.27,0.27,0.59,0.46,0.96,0.57
		c0.37,0.1,0.73,0.12,1.1,0.07c0.49-0.07,0.92-0.26,1.31-0.54c0.38-0.29,0.62-0.63,0.71-1.02l2.81,0.37
		c-0.18,0.58-0.48,1.11-0.89,1.58c-0.42,0.48-0.93,0.89-1.55,1.23C202,265.97,201.29,266.2,200.5,266.32z M197.27,260.36l4.5-0.68
		c-0.1-0.41-0.28-0.76-0.54-1.04c-0.26-0.28-0.56-0.48-0.9-0.61c-0.34-0.12-0.73-0.16-1.15-0.09c-0.38,0.06-0.73,0.2-1.03,0.42
		c-0.3,0.22-0.53,0.5-0.68,0.84C197.31,259.54,197.24,259.92,197.27,260.36z"/>
	<path class="st0" d="M207.35,261.82c-0.17-0.65-0.14-1.27,0.1-1.88s0.66-1.13,1.24-1.6c0.58-0.46,1.3-0.8,2.15-1.03
		c0.41-0.11,0.83-0.18,1.25-0.22c0.42-0.03,0.79-0.02,1.12,0.03l-0.12-0.45c-0.14-0.55-0.42-0.92-0.83-1.11
		c-0.41-0.19-0.96-0.2-1.64-0.02c-0.56,0.15-1.06,0.38-1.51,0.71c-0.45,0.32-0.91,0.74-1.37,1.25l-1.45-1.73
		c0.56-0.62,1.17-1.13,1.84-1.53c0.67-0.41,1.42-0.72,2.23-0.93c1.52-0.4,2.8-0.36,3.83,0.13c1.03,0.49,1.73,1.42,2.09,2.79
		l0.68,2.59c0.08,0.3,0.18,0.51,0.32,0.61c0.13,0.1,0.31,0.13,0.55,0.08l0.68,2.58c-0.24,0.13-0.47,0.24-0.68,0.31
		c-0.21,0.08-0.41,0.14-0.57,0.18c-0.58,0.15-1.05,0.15-1.41,0c-0.36-0.15-0.64-0.42-0.83-0.8l-0.19-0.42
		c-0.28,0.7-0.7,1.28-1.25,1.75c-0.55,0.47-1.16,0.79-1.85,0.97c-0.67,0.18-1.31,0.2-1.92,0.07c-0.61-0.13-1.13-0.4-1.57-0.81
		C207.81,262.95,207.51,262.44,207.35,261.82z M213.61,260.57c0.11-0.15,0.19-0.31,0.25-0.48c0.05-0.17,0.06-0.31,0.03-0.42
		l-0.23-0.88c-0.29-0.03-0.6-0.03-0.93-0.01c-0.34,0.03-0.64,0.08-0.91,0.15c-0.56,0.15-0.99,0.4-1.3,0.75
		c-0.31,0.35-0.41,0.72-0.31,1.11c0.06,0.21,0.17,0.4,0.36,0.56c0.18,0.16,0.4,0.26,0.65,0.31c0.26,0.05,0.54,0.03,0.85-0.05
		c0.31-0.08,0.6-0.22,0.89-0.4C213.23,261.01,213.45,260.8,213.61,260.57z"/>
	<path class="st0" d="M225.16,259.92c-0.84,0.31-1.71,0.47-2.61,0.49c-0.9,0.01-1.73-0.14-2.49-0.47l0.35-2.27
		c0.75,0.22,1.45,0.33,2.1,0.34s1.23-0.08,1.73-0.27c0.38-0.14,0.65-0.31,0.83-0.5c0.18-0.19,0.22-0.41,0.13-0.66
		c-0.07-0.19-0.19-0.3-0.36-0.35c-0.17-0.05-0.39-0.07-0.68-0.07c-0.28,0-0.63,0.02-1.05,0.06c-0.85,0.02-1.56,0.01-2.15-0.03
		c-0.58-0.04-1.07-0.18-1.44-0.43s-0.67-0.64-0.87-1.18c-0.24-0.65-0.29-1.29-0.13-1.9c0.16-0.61,0.49-1.17,1-1.66
		c0.51-0.5,1.19-0.91,2.04-1.22c0.68-0.25,1.38-0.39,2.11-0.42c0.73-0.03,1.47,0.11,2.23,0.41l-0.49,2.3
		c-0.7-0.18-1.3-0.28-1.81-0.29c-0.51-0.01-0.97,0.06-1.38,0.22c-0.21,0.08-0.4,0.17-0.56,0.29c-0.16,0.12-0.27,0.25-0.33,0.4
		c-0.07,0.15-0.06,0.32,0.01,0.52c0.06,0.17,0.17,0.3,0.32,0.37c0.15,0.08,0.36,0.11,0.62,0.11c0.26-0.01,0.58-0.02,0.95-0.05
		c0.92-0.06,1.69-0.08,2.32-0.05c0.63,0.03,1.15,0.18,1.55,0.43c0.4,0.26,0.71,0.67,0.92,1.25c0.37,0.98,0.29,1.89-0.23,2.72
		C227.27,258.82,226.4,259.46,225.16,259.92z"/>
	<path class="st0" d="M236.91,254.61l-6.45-12.68l2.02-1.02l6.45,12.68L236.91,254.61z"/>
	<path class="st0" d="M250.4,246.9l-1.86,1.14l-3.03-4.95c-0.51-0.83-1.02-1.35-1.52-1.56c-0.5-0.21-1.02-0.15-1.54,0.17
		c-0.37,0.22-0.67,0.54-0.92,0.94c-0.24,0.4-0.41,0.84-0.51,1.31c-0.09,0.47-0.08,0.95,0.03,1.44l3.22,5.27l-1.88,1.15l-5.43-8.87
		l1.71-1.05l1.09,1.78c-0.01-0.53,0.07-1.05,0.27-1.56c0.19-0.5,0.47-0.98,0.84-1.42c0.37-0.45,0.82-0.83,1.34-1.15
		c0.53-0.33,1.04-0.5,1.51-0.53c0.47-0.02,0.9,0.07,1.3,0.28c0.4,0.21,0.77,0.52,1.12,0.9c0.35,0.39,0.67,0.82,0.96,1.3L250.4,246.9
		z"/>
	<path class="st0" d="M257.76,240.9c-0.09,0.17-0.22,0.38-0.39,0.65c-0.17,0.27-0.37,0.53-0.6,0.8c-0.23,0.27-0.5,0.52-0.8,0.74
		c-0.36,0.27-0.75,0.45-1.16,0.55c-0.41,0.1-0.81,0.08-1.21-0.06c-0.39-0.14-0.75-0.43-1.08-0.87l-3.89-5.26l-1.13,0.83l-1.01-1.37
		l1.13-0.83l-2.05-2.77l1.77-1.31l2.05,2.77l1.83-1.36l1.01,1.37l-1.84,1.36l3.46,4.68c0.23,0.27,0.49,0.42,0.76,0.43
		c0.27,0.02,0.52-0.07,0.77-0.25c0.24-0.18,0.45-0.4,0.61-0.67c0.16-0.26,0.27-0.45,0.33-0.55L257.76,240.9z"/>
	<path class="st0" d="M263.66,236.83c-0.62,0.55-1.27,0.93-1.95,1.15s-1.36,0.3-2.05,0.24c-0.69-0.06-1.34-0.25-1.96-0.56
		c-0.61-0.31-1.16-0.73-1.63-1.27c-0.49-0.55-0.85-1.16-1.09-1.8c-0.23-0.65-0.34-1.32-0.32-2.01c0.02-0.69,0.19-1.36,0.49-2.01
		c0.31-0.65,0.76-1.25,1.38-1.79c0.62-0.55,1.27-0.93,1.94-1.15c0.67-0.22,1.36-0.3,2.05-0.24c0.69,0.06,1.35,0.24,1.96,0.56
		c0.61,0.31,1.17,0.75,1.66,1.3c0.48,0.53,0.83,1.13,1.06,1.78c0.24,0.65,0.34,1.32,0.32,2.01c-0.02,0.69-0.19,1.36-0.49,2.01
		C264.73,235.7,264.27,236.29,263.66,236.83z M257.76,234.87c0.45,0.51,0.95,0.86,1.51,1.07c0.56,0.21,1.11,0.27,1.66,0.19
		c0.55-0.08,1.04-0.31,1.47-0.69c0.45-0.4,0.75-0.87,0.9-1.4c0.15-0.54,0.15-1.1,0-1.69c-0.15-0.59-0.43-1.13-0.86-1.61
		c-0.43-0.49-0.94-0.85-1.5-1.06c-0.57-0.21-1.12-0.28-1.68-0.19c-0.56,0.09-1.05,0.32-1.48,0.7c-0.44,0.39-0.73,0.86-0.87,1.41
		c-0.14,0.55-0.14,1.11,0,1.69C257.04,233.86,257.33,234.39,257.76,234.87z"/>
	<path class="st0" d="M281.61,216.86l-7.97-6.26l3.47,8.05l-0.82,1.04l-8.64-1.45l7.97,6.26l-1.4,1.78l-11.19-8.78l1.48-1.89
		l9.73,1.65l-3.92-9.06l1.48-1.89l11.19,8.78L281.61,216.86z"/>
	<path class="st0" d="M282.41,210.36c-0.57-0.34-0.97-0.8-1.2-1.38c-0.23-0.58-0.29-1.23-0.18-1.95c0.11-0.72,0.39-1.45,0.83-2.2
		c0.24-0.4,0.51-0.79,0.82-1.17c0.31-0.38,0.62-0.7,0.93-0.96l-0.57-0.33c-0.62-0.37-1.22-0.47-1.8-0.3
		c-0.57,0.17-1.07,0.61-1.5,1.33c-0.3,0.51-0.5,1.03-0.59,1.58c-0.09,0.55-0.12,1.18-0.07,1.89l-1.66-0.15
		c-0.05-0.81,0-1.57,0.17-2.3c0.16-0.73,0.44-1.43,0.83-2.09c0.72-1.21,1.59-1.97,2.63-2.28c1.04-0.31,2.14-0.13,3.3,0.56l3.32,1.97
		c0.22,0.13,0.39,0.18,0.53,0.15c0.14-0.03,0.27-0.13,0.39-0.31l1.52,0.9c-0.07,0.19-0.14,0.36-0.2,0.5
		c-0.07,0.14-0.12,0.26-0.16,0.36c-0.26,0.41-0.54,0.66-0.86,0.75c-0.32,0.09-0.62,0.08-0.9-0.05l-0.55-0.25
		c0.28,0.68,0.38,1.41,0.29,2.18c-0.09,0.78-0.32,1.48-0.68,2.1c-0.36,0.6-0.79,1.06-1.32,1.39c-0.53,0.33-1.07,0.5-1.65,0.51
		C283.48,210.82,282.93,210.67,282.41,210.36z M286.37,204.95c-0.08-0.22-0.17-0.42-0.27-0.59c-0.09-0.17-0.21-0.3-0.33-0.37
		l-1-0.59c-0.32,0.25-0.61,0.53-0.88,0.85c-0.27,0.32-0.51,0.65-0.71,0.98c-0.42,0.7-0.62,1.35-0.6,1.94
		c0.01,0.59,0.26,1.03,0.73,1.31c0.26,0.16,0.55,0.23,0.87,0.22s0.63-0.1,0.94-0.28c0.31-0.18,0.58-0.46,0.81-0.86
		c0.25-0.42,0.41-0.87,0.47-1.35C286.47,205.74,286.46,205.32,286.37,204.95z"/>
	<path class="st0" d="M293.63,196.53c-0.29,0.65-0.69,1.17-1.2,1.59c-0.5,0.42-1.07,0.71-1.69,0.89c-0.62,0.18-1.27,0.24-1.95,0.18
		c-0.68-0.06-1.34-0.24-1.98-0.53c-0.68-0.31-1.27-0.71-1.77-1.19c-0.5-0.48-0.89-1.03-1.16-1.63c-0.28-0.6-0.42-1.23-0.43-1.88
		c-0.01-0.65,0.13-1.3,0.43-1.96c0.35-0.76,0.83-1.36,1.44-1.77c0.62-0.42,1.3-0.68,2.05-0.79l-1.78-0.81l0.8-1.77l9.21,4.19
		c0.92,0.42,1.6,1,2.04,1.73c0.44,0.73,0.65,1.56,0.64,2.48c-0.01,0.92-0.23,1.85-0.66,2.8c-0.48,1.06-1.06,1.85-1.75,2.38
		c-0.68,0.53-1.45,0.9-2.31,1.1l-0.55-1.59c0.69-0.16,1.3-0.46,1.82-0.91c0.53-0.45,0.94-1.01,1.25-1.68
		c0.25-0.55,0.38-1.09,0.4-1.64c0.02-0.55-0.11-1.06-0.39-1.52c-0.28-0.46-0.72-0.84-1.34-1.12l-1.44-0.65
		c0.4,0.59,0.63,1.26,0.68,2C294.06,195.18,293.93,195.88,293.63,196.53z M292.31,195.14c0.14-0.3,0.22-0.62,0.23-0.95
		c0.02-0.33-0.01-0.65-0.07-0.96c-0.06-0.32-0.17-0.61-0.32-0.89c-0.15-0.27-0.33-0.5-0.55-0.69l-2.5-1.14
		c-0.48-0.03-0.94,0.03-1.38,0.18c-0.43,0.15-0.82,0.36-1.16,0.65c-0.34,0.28-0.6,0.62-0.78,1.01c-0.2,0.44-0.28,0.87-0.25,1.3
		c0.03,0.43,0.14,0.84,0.35,1.22c0.2,0.38,0.46,0.73,0.79,1.04c0.33,0.31,0.7,0.56,1.11,0.75c0.43,0.19,0.87,0.3,1.32,0.32
		c0.45,0.02,0.89-0.03,1.31-0.16c0.42-0.13,0.79-0.34,1.12-0.62C291.86,195.92,292.12,195.56,292.31,195.14z"/>
	<path class="st0" d="M285.62,183.58l-2.28-0.83l0.75-2.07l2.28,0.83L285.62,183.58z M297.09,187.74l-9.85-3.57l0.75-2.07l9.85,3.57
		L297.09,187.74z"/>
	<path class="st0" d="M300.55,177.72c-0.22,0.78-0.56,1.46-1.01,2.02c-0.45,0.56-0.99,1-1.61,1.33c-0.62,0.32-1.28,0.53-1.97,0.6
		c-0.7,0.07-1.39,0.01-2.07-0.18c-0.94-0.26-1.75-0.72-2.41-1.36c-0.66-0.65-1.12-1.43-1.36-2.35c-0.24-0.92-0.21-1.91,0.08-2.96
		c0.29-1.03,0.77-1.86,1.44-2.5c0.67-0.64,1.44-1.04,2.3-1.19l0.05,2.26c-0.48,0.12-0.89,0.35-1.25,0.69
		c-0.35,0.34-0.6,0.77-0.75,1.29c-0.16,0.57-0.16,1.12,0,1.65c0.16,0.54,0.45,1.01,0.87,1.41c0.43,0.4,0.97,0.7,1.63,0.88
		c0.65,0.18,1.26,0.21,1.84,0.08c0.58-0.13,1.09-0.38,1.52-0.76c0.43-0.38,0.72-0.85,0.88-1.4c0.1-0.35,0.13-0.7,0.1-1.06
		c-0.03-0.36-0.12-0.69-0.27-1c-0.15-0.31-0.33-0.55-0.55-0.73l1.22-1.88c0.43,0.36,0.77,0.8,1.04,1.33
		c0.27,0.53,0.43,1.13,0.49,1.78C300.82,176.33,300.75,177.01,300.55,177.72z"/>
</g>
<path class="st0" d="M293.31,65.07l-2.74,2.64c15.62,22.41,24.59,49.74,24.03,79.08c-1.42,73.96-62.78,133.02-136.71,131.56
	c-35.77-0.69-69.17-15.3-94.05-41.15s-38.2-59.79-37.51-95.56c0.69-35.77,15.3-69.17,41.15-94.05
	c25.22-24.27,58.12-37.54,92.92-37.54c0.88,0,1.75,0.01,2.63,0.03c29.36,0.56,56.34,10.59,78.14,27.07l2.74-2.64
	c-22.5-17.16-50.42-27.6-80.81-28.19c-36.75-0.7-71.66,12.99-98.23,38.56c-26.57,25.57-41.6,59.91-42.3,96.68
	c-0.71,36.77,12.99,71.66,38.56,98.23c25.57,26.57,59.91,41.6,96.68,42.3c0.9,0.02,1.79,0.03,2.68,0.03
	c74.82-0.01,136.41-60.14,137.85-135.27C318.93,116.49,309.58,88.2,293.31,65.07z"/>
<path class="st0" d="M296.48,61.92l-1.29,1.24c17.25,24.31,26.28,53.39,25.7,83.75c-0.72,37.51-16,72.49-43.03,98.51
	c-27.03,26.01-62.54,39.99-100.09,39.23c-77.43-1.48-139.22-65.69-137.73-143.12C41.5,65.01,104.22,3.76,180.42,3.76
	c0.91,0,1.82,0.01,2.73,0.03c30.33,0.58,59,10.69,82.63,28.83l1.29-1.24c-23.96-18.47-53.08-28.76-83.88-29.36
	C104.84,0.59,39.77,63.09,38.26,141.49c-1.5,78.41,61.06,143.42,139.47,144.92c0.94,0.02,1.87,0.03,2.8,0.03
	c36.95,0,71.85-14.05,98.55-39.75c27.37-26.34,42.85-61.77,43.58-99.75C323.24,116.11,314.06,86.58,296.48,61.92z"/>
<g>
	<g>
		<path class="st0" d="M271.19,33.5c0.32,0.27,0.64,0.46,0.97,0.56c0.33,0.11,0.68,0.12,1.06,0.04c0.38-0.08,0.81-0.3,1.3-0.64
			l0.66,0.68l-9.37,9.02l-0.81-0.84l6.96-6.7l-2.38-2.48l0.6-0.58C270.53,32.92,270.87,33.23,271.19,33.5z"/>
	</g>
	<g>
		<path class="st0" d="M270.03,45.57c0.01,0.65,0.28,1.25,0.8,1.8c0.53,0.55,1.1,0.86,1.7,0.93c0.6,0.07,1.2,0,1.8-0.22
			c0.6-0.22,1.17-0.53,1.72-0.93c0.55-0.41,1.03-0.82,1.46-1.23l-0.03-0.03c-0.68,0.22-1.38,0.25-2.1,0.07
			c-0.72-0.18-1.34-0.53-1.85-1.07c-0.45-0.46-0.78-0.96-0.99-1.5c-0.21-0.53-0.31-1.07-0.29-1.6c0.02-0.53,0.15-1.06,0.39-1.58
			c0.24-0.52,0.59-0.99,1.05-1.43c0.45-0.44,0.95-0.77,1.49-0.98c0.54-0.22,1.08-0.32,1.63-0.31c0.55,0.01,1.09,0.13,1.63,0.37
			c0.53,0.23,1.02,0.58,1.47,1.05c0.55,0.57,0.93,1.14,1.16,1.72c0.22,0.58,0.26,1.19,0.12,1.84c-0.14,0.65-0.46,1.34-0.97,2.08
			c-0.51,0.74-1.22,1.55-2.13,2.42c-0.19,0.18-0.44,0.4-0.77,0.67c-0.33,0.27-0.7,0.53-1.12,0.78c-0.42,0.25-0.88,0.47-1.37,0.66
			c-0.49,0.19-1,0.3-1.52,0.33c-0.52,0.02-1.04-0.06-1.57-0.25c-0.53-0.19-1.04-0.55-1.53-1.05c-0.81-0.84-1.25-1.69-1.32-2.57
			c-0.08-0.87,0.25-1.76,0.99-2.66l0.81,0.84C270.24,44.31,270.02,44.92,270.03,45.57z M275.4,45.03c0.41,0.16,0.82,0.24,1.24,0.23
			c0.42-0.01,0.82-0.11,1.22-0.3c0.4-0.19,0.77-0.45,1.12-0.78c0.34-0.33,0.61-0.67,0.82-1.04c0.2-0.37,0.32-0.75,0.36-1.16
			c0.03-0.4-0.03-0.81-0.19-1.23c-0.16-0.41-0.44-0.83-0.83-1.24c-0.32-0.33-0.67-0.57-1.07-0.72c-0.4-0.15-0.8-0.22-1.21-0.21
			c-0.41,0.01-0.82,0.1-1.21,0.28c-0.4,0.18-0.76,0.42-1.08,0.73c-0.34,0.33-0.61,0.69-0.82,1.08c-0.21,0.39-0.33,0.8-0.37,1.2
			c-0.04,0.41,0.01,0.81,0.15,1.22c0.14,0.41,0.38,0.79,0.73,1.14C274.61,44.59,274.99,44.86,275.4,45.03z"/>
	</g>
	<g>
		<path class="st0" d="M285.86,52.39c-0.62,0.08-1.23-0.05-1.84-0.4L284,52.02c0.47,0.74,0.65,1.47,0.56,2.2
			c-0.1,0.73-0.47,1.4-1.11,2.02c-0.47,0.46-0.97,0.77-1.48,0.94c-0.52,0.17-1.03,0.22-1.55,0.15c-0.52-0.07-1.02-0.24-1.51-0.52
			c-0.49-0.28-0.95-0.64-1.38-1.08c-0.42-0.44-0.76-0.91-1.02-1.41c-0.26-0.5-0.42-1.02-0.47-1.53s0.02-1.03,0.21-1.54
			c0.19-0.51,0.52-0.99,0.99-1.45c0.63-0.57,1.33-0.91,2.08-1c0.75-0.09,1.47,0.11,2.14,0.59l0.03-0.03
			c-0.32-0.64-0.43-1.26-0.33-1.86c0.1-0.6,0.41-1.15,0.92-1.65c0.4-0.39,0.83-0.64,1.28-0.76c0.45-0.12,0.91-0.14,1.36-0.05
			c0.45,0.08,0.88,0.25,1.3,0.5c0.42,0.25,0.8,0.55,1.13,0.9c0.34,0.35,0.62,0.74,0.85,1.17s0.38,0.87,0.45,1.33
			c0.07,0.46,0.04,0.91-0.1,1.36c-0.14,0.45-0.4,0.87-0.81,1.25C287.05,52.03,286.48,52.31,285.86,52.39z M279.25,55.86
			c0.36,0.21,0.74,0.34,1.12,0.38c0.38,0.05,0.76,0,1.15-0.13c0.39-0.13,0.76-0.37,1.12-0.71c0.34-0.33,0.57-0.68,0.7-1.05
			s0.18-0.75,0.14-1.14c-0.04-0.39-0.15-0.76-0.35-1.14c-0.19-0.37-0.45-0.71-0.76-1.01c-0.3-0.33-0.63-0.6-0.99-0.81
			c-0.36-0.21-0.73-0.34-1.11-0.39c-0.38-0.05-0.76-0.01-1.15,0.11c-0.38,0.12-0.74,0.34-1.08,0.67c-0.35,0.34-0.6,0.69-0.74,1.08
			c-0.15,0.38-0.2,0.77-0.17,1.15c0.03,0.38,0.14,0.76,0.33,1.14c0.19,0.38,0.44,0.73,0.76,1.06
			C278.54,55.38,278.88,55.65,279.25,55.86z M283.89,51.04c0.3,0.18,0.61,0.29,0.93,0.33c0.32,0.05,0.64,0.02,0.97-0.09
			s0.65-0.3,0.95-0.59c0.27-0.26,0.45-0.54,0.56-0.84c0.11-0.3,0.14-0.6,0.1-0.91c-0.04-0.31-0.14-0.62-0.3-0.93
			c-0.16-0.31-0.38-0.61-0.65-0.89c-0.25-0.26-0.53-0.47-0.83-0.65c-0.3-0.17-0.61-0.29-0.93-0.35c-0.31-0.06-0.63-0.04-0.94,0.04
			c-0.31,0.09-0.6,0.26-0.87,0.52c-0.31,0.3-0.52,0.62-0.64,0.95c-0.11,0.33-0.15,0.66-0.11,0.98c0.04,0.33,0.14,0.64,0.31,0.94
			c0.17,0.3,0.38,0.57,0.63,0.81C283.32,50.64,283.59,50.86,283.89,51.04z"/>
	</g>
	<g>
		<path class="st0" d="M295.23,54.98l0.73,0.76l-6.33,6.09l1.35,1.41l-0.71,0.68l-1.35-1.41l-2.33,2.24l-0.75-0.78l2.33-2.24
			l-4.16-4.32l0.82-0.79L295.23,54.98z M293.98,56.15l-0.03-0.03l-8.5,1.37l3.43,3.56L293.98,56.15z"/>
	</g>
</g>
<g>
	<rect x="181.63" y="61.36" class="st0" width="1.25" height="22.97"/>
</g>
<g>
	<rect x="242.77" y="143.04" class="st0" width="22.97" height="1.25"/>
</g>
<g>
	<rect x="182.8" y="204.18" class="st0" width="1.25" height="22.97"/>
</g>
<g>
	<rect x="99.95" y="144.22" class="st0" width="22.97" height="1.25"/>
</g>
<g>
	<g>
		<path class="st0" d="M73.29,148.04c-0.01,3.88-3.18,7.16-7.28,7.16c-3.87,0-7.19-3.18-7.2-7.12c-0.01-4.09,3.3-7.11,6.98-7.21
			C70.05,140.76,73.29,144.07,73.29,148.04z M66.05,154.23c3.27,0.19,6.31-2.73,6.3-6.15c-0.01-3.71-3.01-6.28-6.29-6.29
			c-3.64-0.01-6.26,3.01-6.31,6.14C59.69,151.52,62.85,154.41,66.05,154.23z"/>
	</g>
	<g>
		<path class="st0" d="M67.49,146.99c0.39-0.35,0.79-0.7,1.21-1.07c0.1,0.15,0.19,0.28,0.27,0.42c0.16,0.25,0.18,0.26,0.47,0.18
			c0.23-0.06,0.46-0.11,0.68-0.16c0.06-0.01,0.13,0,0.23,0c-0.09,0.39-0.15,0.77-0.27,1.12c-0.08,0.25-0.01,0.39,0.19,0.52
			c0.06,0.04,0.12,0.09,0.25,0.19c-0.11,0.07-0.2,0.11-0.27,0.17c-0.6,0.51-1.2,1.02-1.81,1.52c-0.15,0.12-0.15,0.24-0.1,0.4
			c0.05,0.17,0.1,0.34,0.16,0.56c-0.78-0.08-1.52-0.16-2.28-0.24c0,0.77,0,1.5,0,2.25c-0.08,0.01-0.13,0.01-0.18,0.02
			c-0.17,0.02-0.23-0.03-0.22-0.21c0.03-0.6,0.05-1.2,0.07-1.8c0-0.08,0-0.16,0-0.26c-0.77,0.08-1.52,0.15-2.3,0.23
			c0.03-0.2,0.05-0.36,0.09-0.52c0.07-0.24,0-0.39-0.19-0.55c-0.58-0.49-1.15-1-1.72-1.5c-0.05-0.04-0.11-0.08-0.15-0.11
			c0.02-0.05,0.02-0.07,0.03-0.07c0.39-0.28,0.39-0.28,0.26-0.75c-0.08-0.31-0.15-0.63-0.24-0.99c0.24,0.04,0.45,0.06,0.65,0.1
			c0.1,0.02,0.2,0.04,0.3,0.06c0.39,0.11,0.33,0.05,0.52-0.23c0.03-0.04,0.05-0.08,0.07-0.12c0.08-0.15,0.16-0.16,0.29-0.04
			c0.3,0.28,0.62,0.56,0.93,0.83c0.05,0.05,0.12,0.09,0.23,0.18c-0.16-0.92-0.31-1.77-0.45-2.63c0.02-0.01,0.04-0.03,0.06-0.04
			c0.27,0.14,0.53,0.29,0.82,0.44c0.3-0.58,0.59-1.14,0.9-1.75c0.16,0.29,0.29,0.52,0.42,0.76c0.14,0.27,0.29,0.54,0.42,0.81
			c0.07,0.14,0.15,0.18,0.29,0.08c0.13-0.09,0.27-0.16,0.41-0.24c0.08-0.04,0.16-0.07,0.3-0.12c-0.14,0.88-0.27,1.71-0.41,2.54
			C67.45,146.96,67.47,146.97,67.49,146.99z"/>
	</g>
</g>
<g>
	<g>
		<path class="st0" d="M306.58,148.04c-0.01,3.88-3.18,7.16-7.28,7.16c-3.87,0-7.19-3.18-7.2-7.12c-0.01-4.09,3.3-7.11,6.98-7.21
			C303.34,140.76,306.58,144.07,306.58,148.04z M299.34,154.23c3.27,0.19,6.31-2.73,6.3-6.15c-0.01-3.71-3.01-6.28-6.29-6.29
			c-3.64-0.01-6.26,3.01-6.31,6.14C292.98,151.52,296.13,154.41,299.34,154.23z"/>
	</g>
	<g>
		<path class="st0" d="M300.78,146.99c0.39-0.35,0.79-0.7,1.21-1.07c0.1,0.15,0.19,0.28,0.27,0.42c0.16,0.25,0.18,0.26,0.47,0.18
			c0.23-0.06,0.46-0.11,0.68-0.16c0.06-0.01,0.13,0,0.23,0c-0.09,0.39-0.15,0.77-0.27,1.12c-0.08,0.25-0.01,0.39,0.19,0.52
			c0.06,0.04,0.12,0.09,0.25,0.19c-0.11,0.07-0.2,0.11-0.27,0.17c-0.6,0.51-1.2,1.02-1.81,1.52c-0.15,0.12-0.15,0.24-0.1,0.4
			c0.05,0.17,0.1,0.34,0.16,0.56c-0.78-0.08-1.52-0.16-2.28-0.24c0,0.77,0,1.5,0,2.25c-0.08,0.01-0.13,0.01-0.18,0.02
			c-0.17,0.02-0.23-0.03-0.22-0.21c0.03-0.6,0.05-1.2,0.07-1.8c0-0.08,0-0.16,0-0.26c-0.77,0.08-1.52,0.15-2.3,0.23
			c0.03-0.2,0.05-0.36,0.09-0.52c0.07-0.24,0-0.39-0.19-0.55c-0.58-0.49-1.15-1-1.72-1.5c-0.05-0.04-0.11-0.08-0.15-0.11
			c0.02-0.05,0.02-0.07,0.03-0.07c0.39-0.28,0.39-0.28,0.26-0.75c-0.08-0.31-0.15-0.63-0.24-0.99c0.24,0.04,0.45,0.06,0.65,0.1
			c0.1,0.02,0.2,0.04,0.3,0.06c0.39,0.11,0.33,0.05,0.52-0.23c0.03-0.04,0.05-0.08,0.07-0.12c0.08-0.15,0.16-0.16,0.29-0.04
			c0.3,0.28,0.62,0.56,0.93,0.83c0.05,0.05,0.12,0.09,0.23,0.18c-0.16-0.92-0.31-1.77-0.45-2.63c0.02-0.01,0.04-0.03,0.06-0.04
			c0.27,0.14,0.53,0.29,0.82,0.44c0.3-0.58,0.59-1.14,0.9-1.75c0.16,0.29,0.29,0.52,0.42,0.76c0.14,0.27,0.29,0.54,0.42,0.81
			c0.07,0.14,0.15,0.18,0.29,0.08c0.13-0.09,0.27-0.16,0.41-0.24c0.08-0.04,0.16-0.07,0.3-0.12c-0.14,0.88-0.27,1.71-0.41,2.54
			C300.74,146.96,300.76,146.97,300.78,146.99z"/>
	</g>
</g>
<g>
</g>
<g>
</g>
<g>
</g>
<g>
</g>
<g>
</g>
<g>
</g>
<g>
</g>
<g>
</g>
<g>
</g>
<g>
</g>
<g>
</g>
<g>
</g>
<g>
</g>
<g>
</g>
<g>
</g>
</svg>
